<?xml version="1.0" encoding="UTF-8"?><svg id="Layer_1" xmlns="http://www.w3.org/2000/svg" viewBox="0 0 1618.18 929.33"><defs><style>.cls-1{fill:none;stroke:#efe635;stroke-linejoin:round;stroke-width:10px;}</style></defs><path class="cls-1" d="M420.99,305.29l-58.13,150.24H5.56l1.41-4.92c20.2-10.45,33.6-19.66,40.1-27.34,6.5-7.68,12.88-22.43,19.14-44.24L151.13,82.84c6.43-22.43,8.6-37.48,6.5-45.17-2.1-7.68-10.3-16.59-24.51-27.04l1.41-4.92h227.65l-1.41,4.92c-20.2,10.45-33.51,19.36-40.01,27.04-6.5,7.68-12.97,22.74-19.4,45.17l-90.92,317.08c-2.64,9.22-.76,16.59,5.24,22.43,6.01,5.84,14.56,9.22,25.67,10.14,29.01-1.54,59.31-15.05,90.8-40.25,31.5-25.19,59.75-54.08,84.84-86.95h3.99Z"/><path class="cls-1" d="M1613.18,774.51l-57.29,148.06h-352.13l1.39-4.84c19.91-10.29,33.11-19.38,39.52-26.95,6.41-7.57,12.7-22.1,18.86-43.6l83.69-291.88c6.34-22.1,8.47-36.94,6.4-44.51-2.07-7.57-10.15-16.35-24.15-26.64l1.39-4.85h224.35l-1.39,4.85c-19.91,10.29-33.02,19.07-39.43,26.64-6.41,7.57-12.78,22.41-19.12,44.51l-89.6,312.47c-2.6,9.08-.75,16.35,5.17,22.1,5.92,5.75,14.35,9.08,25.29,9.99,28.59-1.51,58.45-14.84,89.49-39.66,31.04-24.83,58.88-53.29,83.61-85.69h3.94Z"/><path class="cls-1" d="M792.93,775.72l-57.29,148.06H368.07l1.39-4.84c19.91-10.3,33.11-19.38,39.52-26.95,6.41-7.57,12.7-22.1,18.86-43.6l83.69-291.88c6.34-22.1,8.47-36.94,6.4-44.51-2.07-7.57-10.15-16.35-24.15-26.65l1.39-4.84h345.77l-32.47,152.3h-4.84c-.48-34.21-9.67-64.49-27.33-90.53-17.66-26.04-45.72-39.06-84.17-39.06h-17.26l-49.83,173.8h19.07c20.89,0,41.31-5.75,61.18-16.96,19.86-11.2,36.79-24.83,50.69-40.57h3.03l-40.37,140.79h-3.03c-4.87-17.86-13.63-32.7-26.29-44.51-12.66-11.81-29.78-17.56-51.37-17.26l-19.25,.61-48.36,168.65c-2.87,9.99-.88,17.86,5.94,23.62,6.83,5.75,16.34,8.48,28.15,8.48h7.57c29.37,0,59.57-12.42,90.91-37.24,31.34-24.83,60.05-54.2,85.82-88.11l4.19,1.21Z"/><path class="cls-1" d="M677.08,5c125.37,0,227.13,102.36,227.13,227.73s-101.75,226.52-227.13,226.52-226.52-101.15-226.52-226.52S551.71,5,677.08,5Zm0,118.71c-59.36,0-107.81,48.45-107.81,108.41s48.45,108.42,107.81,108.42,108.41-49.06,108.41-108.42-48.45-108.41-108.41-108.41Z"/><path class="cls-1" d="M880.62,480.08h276.03v96.55h-159.34v72.27h140.98v98.33h-140.98v81.74h159.34v95.37h-276.03V480.08Z"/><path class="cls-1" d="M1544.51,142.47c-34.75,3.26-65.69,4.89-91.75,4.89-10.86,0-20.63,0-29.32-.54l-32.58-4.34c-4.34,0-7.6,2.71-8.14,7.06-.54,3.8,1.63,7.6,5.43,8.69l33.12,4.34c32.58,5.97,51.58,16.29,52.66,28.23,.54,13.03-22.8,29.86-64.06,45.06l-67.32,19.55c-3.8,1.63-5.97,5.97-4.89,9.77,1.63,3.8,5.43,6.52,9.77,5.43l67.32-19.55c35.83-8.69,68.41-13.03,95.55-13.03,43.98,0,73.3,10.86,87.41,33.12,17.92,28.23,17.92,64.06-1.09,98.27-28.77,52.66-92.84,86.87-162.88,86.87l-16.29-.54c-47.78-3.26-84.15-19.55-108.04-48.32-32.03-39.09-42.89-101.53-32.58-191.11,10.86-97.73,68.95-211.2,196-211.2h8.69c73.29,3.26,128.67,50.49,129.76,90.67,.54,26.06-23.89,42.89-66.78,46.69Z"/><path class="cls-1" d="M371.79,875.08c-22.89,28.88-62.12,47.95-100.27,47.95-15.8,0-29.97-3.27-41.41-9.81-58.31-32.69-81.74-129.69-84.46-140.59-.54-1.63-.54-2.72-.54-2.72-.54-3.27-3.81-5.99-7.63-5.99-.55,0-1.09,0-1.64,.54-4.36,.54-7.08,4.91-5.99,9.26v2.18c2.18,8.17,16.35,80.65-9.81,116.07-8.72,11.44-20.16,17.98-35.97,19.07-1.63,.54-3.81,.54-5.45,.54-16.89,0-31.61-8.17-43.59-24.52C-.94,838.57-5.3,725.23,25.76,623.87c28.88-94.82,138.41-144.41,231.59-144.41,38.15,0,68.66,8.72,86.64,23.98,26.16,21.8,35.97,57.22,26.16,91.55-15.26,55.58-74.66,97-158.57,110.08-9.26,1.09-14.71,2.18-14.71,2.18-4.36,1.09-7.08,4.9-6.54,9.26,.54,4.36,4.36,7.08,8.72,6.54,4.9-.54,9.81-1.09,14.71-1.64,9.26-1.09,23.43-2.72,40.32-2.72,53.4,0,120.43,12.53,135.14,73.02,9.26,38.69-4.36,66.48-17.44,83.37Zm-196.17-291.54c.55-4.36-2.72-8.17-7.08-8.72s-8.17,2.72-8.72,7.08l-10.9,89.91c-.54,4.36,2.72,8.17,7.08,8.72h1.09c3.81,0,7.08-2.73,7.63-6.54l10.9-90.46Z"/><path class="cls-1" d="M1353.48,5.11l-1.23,4.3c-27.63,22.43-47.4,39.94-59.62,52.54s-25.93,30.42-41.44,53.46l-224.94,339.81h-62.37l-41.47-382.52c-2.83-25.5-10.88-46.7-24.47-63.6l1.06-3.69h232.26l-1.41,4.92c-25.74,16.9-40.76,32.88-45.39,47.93-2.64,9.22-3.14,24.89-1.5,47.01l14.97,207.08,130.34-200.63c10.42-15.98,17.02-28.27,19.39-36.56,5.73-19.97-5-41.48-31.88-64.52l1.41-4.92,136.28-.61Z"/></svg>