<?xml version="1.0" encoding="utf-8"?>
<!-- Generator: Adobe Illustrator 26.3.1, SVG Export Plug-In . SVG Version: 6.00 Build 0)  -->
<svg version="1.1" xmlns="http://www.w3.org/2000/svg" xmlns:xlink="http://www.w3.org/1999/xlink" x="0px" y="0px"
	 viewBox="0 0 2600 2600" style="enable-background:new 0 0 2600 2600;" xml:space="preserve">
<style type="text/css">
	.st0{display:none;}
	.st1{display:inline;}
	.st2{display:none;opacity:0.18;}
</style>
<g id="Layer_1" class="st0">
	<g class="st1">
		<path d="M439.9,1409.6c-28.8,0-53.5-5.9-74-17.6c-20.5-11.7-36.3-28.1-47.4-49c-11.1-20.9-16.6-45.4-16.6-73.4
			c0-21.3,3.4-40.5,10.2-57.4c6.8-16.9,16.3-31.4,28.6-43.4c12.3-12,26.8-21.1,43.6-27.4c16.8-6.3,35.3-9.4,55.6-9.4
			c28,0,52.3,5.5,73,16.4c20.7,10.9,36.7,26.3,48.2,46c11.5,19.7,17.2,43.1,17.2,70c0,21.6-3.2,41.3-9.6,59
			c-6.4,17.7-15.7,33-27.8,45.8c-12.1,12.8-26.7,22.7-43.8,29.8C480.1,1406.1,461,1409.6,439.9,1409.6z M444.7,1378.4
			c11.2,0,20.6-4.3,28.2-13c7.6-8.7,13.4-20.9,17.4-36.6c4-15.7,6-34.4,6-56c0-20.5-2.5-39.1-7.4-55.8c-4.9-16.7-12-30-21.2-40
			s-20.2-15-33-15c-10.7,0-19.8,3.8-27.4,11.4s-13.4,18.7-17.4,33.2c-4,14.5-6,32.3-6,53.4c0,16,1.2,31.1,3.6,45.4
			c2.4,14.3,6.1,26.9,11,37.8c4.9,10.9,11.2,19.5,18.8,25.8C424.9,1375.3,434.1,1378.4,444.7,1378.4z"/>
		<path d="M587.7,1190.4c0-6.1-0.8-11.1-2.4-15c-1.6-3.9-4.5-6.8-8.8-8.8c-4.3-2-10.4-3.4-18.4-4.2c0-5.1,0.3-10.3,1-15.6
			c0.7-5.3,2.1-10.1,4.2-14.4c13.3,0,25.7-0.7,37.2-2c11.5-1.3,21.5-3,30-5c8.5-2,14.9-4.1,19.2-6.2c4.5,1.9,8,4.9,10.4,9
			c2.4,4.1,3.6,9.7,3.6,16.6v46.8h-76V1190.4z M798.1,1341.2c0,13.1,1.2,22.1,3.6,27.2c2.4,5.1,6.9,7.6,13.6,7.6
			c1.9,4.3,3.1,8.9,3.6,13.8c0.5,4.9,0.8,10.7,0.8,17.4c-5.9-0.3-14.3-0.5-25.2-0.8c-10.9-0.3-21.1-0.4-30.4-0.4
			c-6.1,0-13.6,0.1-22.4,0.2c-8.8,0.1-17.1,0.3-25,0.4c-7.9,0.1-13.8,0.3-17.8,0.6c0-5.6,0.2-11,0.6-16.2c0.4-5.2,1.5-10.2,3.4-15
			c5.6,0,10.2-2.8,13.8-8.4c3.6-5.6,5.4-15.9,5.4-30.8v-27.6c0-15.2-2-25.9-6-32c-4-6.1-10.3-9.2-18.8-9.2c-6.4,0-12.1,2.7-17.2,8
			c-5.1,5.3-9.1,12.6-12,21.8c-2.9,9.2-4.4,19.9-4.4,32.2v11.2c0,13.9,1.7,23.1,5,27.8c3.3,4.7,7.9,7,13.8,7
			c2.1,5.1,3.4,10,3.8,14.8c0.4,4.8,0.6,10.3,0.6,16.4c-4-0.3-9.6-0.5-16.8-0.6c-7.2-0.1-14.7-0.3-22.6-0.4
			c-7.9-0.1-15.1-0.2-21.8-0.2c-6.4,0-14.1,0.1-23.2,0.2c-9.1,0.1-17.7,0.3-26,0.4c-8.3,0.1-14.4,0.3-18.4,0.6c0-6.1,0.3-12,1-17.6
			c0.7-5.6,1.7-10.1,3-13.6c10.4,0,17.3-2.5,20.6-7.4c3.3-4.9,5-14.1,5-27.4V1298l76-53.2c0,3.2-0.5,6.9-1.4,11.2
			c-0.9,4.3-2.1,8.7-3.4,13.2c2.1-5.3,4.4-10.3,6.8-14.8c2.4-4.5,5.3-8.5,8.8-12c6.4-6.4,14.2-11.5,23.4-15.4
			c9.2-3.9,19.4-5.8,30.6-5.8c12,0,23.3,2.2,34,6.6c10.7,4.4,19.3,11.4,25.8,21c6.5,9.6,9.8,22.1,9.8,37.6V1341.2z M587.7,1179.2h76
			v65.6l-76,68V1179.2z"/>
		<path d="M1143.1,1341.2c0,13.1,1.2,22.1,3.6,27.2c2.4,5.1,6.9,7.6,13.6,7.6c1.9,4.3,3.1,8.9,3.6,13.8c0.5,4.9,0.8,10.7,0.8,17.4
			c-5.9-0.3-14.3-0.5-25.2-0.8c-10.9-0.3-21.1-0.4-30.4-0.4c-6.1,0-13.6,0.1-22.4,0.2c-8.8,0.1-17.1,0.3-25,0.4
			c-7.9,0.1-13.8,0.3-17.8,0.6c0-5.6,0.2-11,0.6-16.2c0.4-5.2,1.5-10.2,3.4-15c5.6,0,10.2-2.8,13.8-8.4c3.6-5.6,5.4-15.9,5.4-30.8
			v-27.6c0-15.2-2-25.9-6-32c-4-6.1-10.3-9.2-18.8-9.2c-6.4,0-12.1,2.7-17.2,8c-5.1,5.3-9.1,12.6-12,21.8
			c-2.9,9.2-4.4,19.9-4.4,32.2v11.2c0,13.9,1.7,23.1,5,27.8c3.3,4.7,7.9,7,13.8,7c2.1,5.1,3.4,10,3.8,14.8s0.6,10.3,0.6,16.4
			c-4-0.3-9.6-0.5-16.8-0.6c-7.2-0.1-14.7-0.3-22.6-0.4c-7.9-0.1-15.1-0.2-21.8-0.2c-6.4,0-14.1,0.1-23.2,0.2
			c-9.1,0.1-17.7,0.3-26,0.4c-8.3,0.1-14.4,0.3-18.4,0.6c0-6.1,0.3-12,1-17.6c0.7-5.6,1.7-10.1,3-13.6c10.4,0,17.3-2.5,20.6-7.4
			c3.3-4.9,5-14.1,5-27.4V1298l76-53.2c0,3.2-0.5,6.9-1.4,11.2c-0.9,4.3-2.1,8.7-3.4,13.2c2.1-5.3,4.4-10.3,6.8-14.8
			c2.4-4.5,5.3-8.5,8.8-12c6.4-6.4,14.2-11.5,23.4-15.4c9.2-3.9,19.4-5.8,30.6-5.8c12,0,23.3,2.2,34,6.6c10.7,4.4,19.3,11.4,25.8,21
			c6.5,9.6,9.8,22.1,9.8,37.6V1341.2z M932.7,1324.4V1298c0-8.8-0.5-15.6-1.6-20.4c-1.1-4.8-3.6-8.3-7.6-10.6
			c-4-2.3-10.4-3.8-19.2-4.6c0-5.1,0.3-10.3,1-15.6c0.7-5.3,2.1-10.1,4.2-14.4c19.7,0,37.3-1.4,52.8-4.2c15.5-2.8,26.4-5.8,32.8-9
			c4.5,1.9,7.9,4.9,10.2,9c2.3,4.1,3.4,9.7,3.4,16.6L932.7,1324.4z"/>
		<path d="M1262.7,1409.6c-23.7,0-43.6-3.7-59.6-11.2c-16-7.5-27.9-18.1-35.8-31.8c-7.9-13.7-11.8-29.9-11.8-48.6
			c0-22.7,4.9-41.3,14.8-55.8c9.9-14.5,23.2-25.3,40-32.4c16.8-7.1,35.5-10.6,56-10.6c24.5,0,44.8,4,60.8,12s27.9,18.9,35.8,32.6
			c7.9,13.7,11.8,29.5,11.8,47.4c0,20.8-4.5,38.5-13.4,53.2c-8.9,14.7-21.8,25.9-38.6,33.6
			C1305.9,1405.7,1285.9,1409.6,1262.7,1409.6z M1270.3,1378.8c9.1,0,16.1-5.3,21-15.8c4.9-10.5,7.4-23.4,7.4-38.6
			c0-17.3-1.9-31.7-5.6-43c-3.7-11.3-8.5-19.7-14.2-25.2c-5.7-5.5-11.9-8.2-18.6-8.2c-9.9,0-17.1,5.4-21.8,16.2
			c-4.7,10.8-7,23.7-7,38.6c0,13.6,1.4,26.2,4.2,37.8c2.8,11.6,7.1,20.9,13,27.8C1254.6,1375.3,1261.8,1378.8,1270.3,1378.8z"/>
		<path d="M1423.3,1342c7.7,2.1,13.3,6.1,16.6,11.8c3.3,5.7,5,15.8,5,30.2c0,16.8-4,33.9-12,51.2c-8,17.3-18.9,32.5-32.8,45.6
			c-6.7-0.5-12.9-1.8-18.6-3.8c-5.7-2-10.2-4.3-13.4-7c17.9-20.3,26.8-36.9,26.8-50c0-5.1-2.5-9.3-7.4-12.6
			c-4.9-3.3-11.9-5.5-21-6.6c0-9.1,0.4-16.7,1.2-23c0.8-6.3,2.5-13.9,5.2-23c10.7-0.5,20.3-1.8,28.8-3.8
			C1410.2,1349,1417.4,1346,1423.3,1342z"/>
		<path d="M1733.5,1409.6l-172-232.8c-2.1-3.7-5-6.3-8.6-7.8c-3.6-1.5-9.7-2.6-18.2-3.4c-1.1-4.5-1.9-9.4-2.4-14.6
			c-0.5-5.2-0.8-10.7-0.8-16.6c3.5,0.3,8.6,0.5,15.4,0.6c6.8,0.1,13.7,0.3,20.8,0.4c7.1,0.1,12.7,0.2,17,0.2
			c6.7,0,14.5-0.1,23.6-0.2c9.1-0.1,16.3-0.5,21.6-1l116.8,160.8L1733.5,1409.6z M1531.5,1407.2c0-6.4,0.2-12.1,0.6-17.2
			c0.4-5.1,1.3-9.7,2.6-14c8.3-1.1,14.7-3.1,19.4-6.2c4.7-3.1,8-8.5,10-16.4c2-7.9,3-19.4,3-34.6V1160l30,3.2v155.6
			c0,15.2,0.8,26.7,2.4,34.6c1.6,7.9,4.7,13.3,9.4,16.4c4.7,3.1,11.3,5.1,19.8,6.2c1.3,4.3,2.1,9.2,2.4,14.8
			c0.3,5.6,0.4,11.1,0.4,16.4c-3.7-0.3-8.5-0.5-14.4-0.6c-5.9-0.1-11.9-0.3-18-0.4c-6.1-0.1-11.5-0.2-16-0.2
			c-4.5,0-10.3,0.1-17.2,0.2c-6.9,0.1-13.6,0.3-20,0.4C1539.5,1406.7,1534.7,1406.9,1531.5,1407.2z M1733.5,1409.6l6.4-75.6v-111.2
			c0-15.2-0.8-26.7-2.4-34.6c-1.6-7.9-4.9-13.3-9.8-16.4c-4.9-3.1-12.2-5.1-21.8-6.2c-1.1-4.5-1.8-9.7-2.2-15.6
			c-0.4-5.9-0.6-11.1-0.6-15.6c3.7,0.3,8.9,0.5,15.4,0.6c6.5,0.1,13.2,0.3,20,0.4c6.8,0.1,12.5,0.2,17,0.2c6.9,0,14.5-0.1,22.8-0.4
			c8.3-0.3,14.8-0.5,19.6-0.8c0,5.3-0.1,10.5-0.4,15.6c-0.3,5.1-1.1,10.3-2.4,15.6c-6.9,0.8-12.2,2.7-15.8,5.8
			c-3.6,3.1-6.1,8.5-7.4,16.2c-1.3,7.7-2,19.5-2,35.2V1406c-5.3,1.6-10.9,2.6-16.6,3C1747.6,1409.4,1741,1409.6,1733.5,1409.6z"/>
		<path d="M1782.5,1407.2c0-6.7,0.3-12.6,0.8-17.8c0.5-5.2,1.5-9.7,2.8-13.4c10.7-0.5,17.7-3.1,21-7.8c3.3-4.7,5-13.7,5-27v-50.8
			c0-6.1-0.8-11.1-2.4-15c-1.6-3.9-4.5-6.8-8.8-8.8c-4.3-2-10.4-3.4-18.4-4.2c0-5.1,0.3-10.3,1-15.6c0.7-5.3,2.1-10.1,4.2-14.4
			c13.3,0,25.7-0.7,37.2-2c11.5-1.3,21.5-3,30-5c8.5-2,14.9-4.1,19.2-6.2c4.5,1.9,8,4.9,10.4,9c2.4,4.1,3.6,9.7,3.6,16.6v96.4
			c0,13.3,1.7,22.3,5.2,27c3.5,4.7,10.5,7.3,21.2,7.8c1.3,3.7,2.2,8.2,2.6,13.4c0.4,5.2,0.6,11.1,0.6,17.8
			c-3.2-0.3-8.4-0.5-15.6-0.6c-7.2-0.1-15.3-0.3-24.4-0.4c-9.1-0.1-18.3-0.2-27.6-0.2c-9.1,0-18.2,0.1-27.4,0.2
			c-9.2,0.1-17.4,0.3-24.6,0.4C1790.9,1406.7,1785.7,1406.9,1782.5,1407.2z M1843.7,1200c-12.5,0-22.5-2.9-29.8-8.8
			c-7.3-5.9-11-13.7-11-23.6c0-11.7,4.1-20.6,12.4-26.6c8.3-6,18.7-9,31.2-9c14.1,0,24.9,2.9,32.2,8.8c7.3,5.9,11,14.5,11,26
			c0,9.9-4.1,17.9-12.2,24C1869.3,1196.9,1858.1,1200,1843.7,1200z"/>
		<path d="M2083.1,1389.2c-6.9,6.4-16.5,11.4-28.8,15c-12.3,3.6-25.9,5.4-40.8,5.4c-21.9,0-40.7-3.4-56.6-10.2
			c-15.9-6.8-28.1-17.1-36.6-31c-8.5-13.9-12.8-31.6-12.8-53.2c0-16,3.7-31.3,11.2-46c7.5-14.7,18.7-26.7,33.6-36
			c14.9-9.3,33.7-14,56.4-14c16.3,0,30.1,1.3,41.4,4c11.3,2.7,21.7,6.5,31,11.6c-1.9,7.5-3.2,15.3-4,23.4
			c-0.8,8.1-1.2,17.9-1.2,29.4c-6.1,2.7-12.9,4.5-20.4,5.4c-7.5,0.9-14.7,1.4-21.6,1.4c0-15.5-2.1-27.1-6.4-34.8
			c-4.3-7.7-9.9-11.6-16.8-11.6c-9.3,0-16.4,5.9-21.2,17.8c-4.8,11.9-7.2,26.5-7.2,43.8c0,10.1,1.7,20.1,5,29.8
			c3.3,9.7,8.8,17.7,16.4,24c7.6,6.3,17.7,9.4,30.2,9.4c8.5,0,16.1-0.9,22.8-2.6c6.7-1.7,12.4-3.9,17.2-6.6c2.9,2.9,5.2,6.6,6.8,11
			C2082.3,1379,2083.1,1383.9,2083.1,1389.2z"/>
		<path d="M2186.1,1409.6c-23.7,0-43.6-3.7-59.6-11.2c-16-7.5-27.9-18.1-35.8-31.8c-7.9-13.7-11.8-29.9-11.8-48.6
			c0-22.7,4.9-41.3,14.8-55.8c9.9-14.5,23.2-25.3,40-32.4c16.8-7.1,35.5-10.6,56-10.6c24.5,0,44.8,4,60.8,12s27.9,18.9,35.8,32.6
			c7.9,13.7,11.8,29.5,11.8,47.4c0,20.8-4.5,38.5-13.4,53.2c-8.9,14.7-21.8,25.9-38.6,33.6
			C2229.3,1405.7,2209.3,1409.6,2186.1,1409.6z M2193.7,1378.8c9.1,0,16.1-5.3,21-15.8c4.9-10.5,7.4-23.4,7.4-38.6
			c0-17.3-1.9-31.7-5.6-43c-3.7-11.3-8.5-19.7-14.2-25.2c-5.7-5.5-11.9-8.2-18.6-8.2c-9.9,0-17.1,5.4-21.8,16.2
			c-4.7,10.8-7,23.7-7,38.6c0,13.6,1.4,26.2,4.2,37.8c2.8,11.6,7.1,20.9,13,27.8C2177.9,1375.3,2185.1,1378.8,2193.7,1378.8z"/>
	</g>
</g>
<g id="Layer_1_copy" class="st2">
	<g class="st1">
		<path d="M870.4,1235.5c-29.6,0-55-6-76.1-18.1c-21.1-12.1-37.4-28.9-48.7-50.4c-11.4-21.5-17.1-46.7-17.1-75.5
			c0-21.9,3.5-41.6,10.5-59c7-17.4,16.8-32.3,29.4-44.6c12.6-12.3,27.6-21.7,44.8-28.2c17.3-6.4,36.3-9.7,57.2-9.7
			c28.8,0,53.8,5.6,75.1,16.9c21.3,11.2,37.8,27,49.6,47.3c11.8,20.3,17.7,44.3,17.7,72c0,22.2-3.3,42.4-9.9,60.7
			c-6.6,18.2-16.1,33.9-28.6,47.1c-12.5,13.2-27.5,23.4-45,30.6C911.7,1231.8,892.1,1235.5,870.4,1235.5z M875.4,1203.4
			c11.5,0,21.2-4.5,29-13.4c7.8-8.9,13.8-21.5,17.9-37.6c4.1-16.2,6.2-35.4,6.2-57.6c0-21.1-2.5-40.2-7.6-57.4
			c-5.1-17.1-12.3-30.9-21.8-41.1s-20.8-15.4-33.9-15.4c-11,0-20.4,3.9-28.2,11.7c-7.8,7.8-13.8,19.2-17.9,34.1
			c-4.1,15-6.2,33.3-6.2,54.9c0,16.5,1.2,32,3.7,46.7c2.5,14.7,6.2,27.6,11.3,38.9c5.1,11.2,11.5,20.1,19.3,26.5
			C855,1200.2,864.4,1203.4,875.4,1203.4z"/>
		<path d="M1022.4,1010c0-6.3-0.8-11.4-2.5-15.4c-1.6-4-4.7-7-9.1-9.1c-4.4-2.1-10.7-3.5-18.9-4.3c0-5.2,0.3-10.6,1-16
			c0.7-5.5,2.1-10.4,4.3-14.8c13.7,0,26.5-0.7,38.3-2.1c11.8-1.4,22.1-3.1,30.9-5.1c8.8-2.1,15.4-4.2,19.7-6.4
			c4.7,1.9,8.2,5,10.7,9.3c2.5,4.3,3.7,9.9,3.7,17.1v48.1h-78.2V1010z M1238.8,1165.1c0,13.4,1.2,22.8,3.7,28
			c2.5,5.2,7.1,7.8,14,7.8c1.9,4.4,3.1,9.1,3.7,14.2c0.5,5.1,0.8,11,0.8,17.9c-6-0.3-14.7-0.6-25.9-0.8c-11.2-0.3-21.7-0.4-31.3-0.4
			c-6.3,0-14,0.1-23,0.2c-9.1,0.1-17.6,0.3-25.7,0.4c-8.1,0.1-14.2,0.3-18.3,0.6c0-5.8,0.2-11.3,0.6-16.7c0.4-5.3,1.6-10.5,3.5-15.4
			c5.8,0,10.5-2.9,14.2-8.6c3.7-5.8,5.6-16.3,5.6-31.7v-28.4c0-15.6-2.1-26.6-6.2-32.9c-4.1-6.3-10.6-9.5-19.3-9.5
			c-6.6,0-12.5,2.7-17.7,8.2c-5.2,5.5-9.3,13-12.3,22.4c-3,9.5-4.5,20.5-4.5,33.1v11.5c0,14.3,1.7,23.8,5.1,28.6
			c3.4,4.8,8.2,7.2,14.2,7.2c2.2,5.2,3.5,10.3,3.9,15.2c0.4,4.9,0.6,10.6,0.6,16.9c-4.1-0.3-9.9-0.5-17.3-0.6
			c-7.4-0.1-15.2-0.3-23.2-0.4c-8.1-0.1-15.6-0.2-22.4-0.2c-6.6,0-14.5,0.1-23.9,0.2c-9.3,0.1-18.2,0.3-26.7,0.4
			c-8.5,0.1-14.8,0.3-18.9,0.6c0-6.3,0.3-12.3,1-18.1c0.7-5.8,1.7-10.4,3.1-14c10.7,0,17.8-2.5,21.2-7.6c3.4-5.1,5.1-14.5,5.1-28.2
			v-44.4l78.2-54.7c0,3.3-0.5,7.1-1.4,11.5c-1,4.4-2.1,8.9-3.5,13.6c2.2-5.5,4.5-10.6,7-15.2c2.5-4.7,5.5-8.8,9.1-12.3
			c6.6-6.6,14.6-11.9,24.1-15.8c9.5-4,20-6,31.5-6c12.3,0,24,2.3,35,6.8c11,4.5,19.8,11.7,26.5,21.6c6.7,9.9,10.1,22.8,10.1,38.7
			V1165.1z M1022.4,998.5h78.2v67.5l-78.2,69.9V998.5z"/>
		<path d="M1551,1160.8c0,14.2,1.3,24.1,3.9,29.6c2.6,5.5,7.6,8.3,14.8,8.3c2,4.7,3.3,9.7,3.9,15c0.6,5.4,0.9,11.7,0.9,19
			c-6.4-0.3-15.6-0.6-27.5-0.9c-11.9-0.3-23-0.4-33.1-0.4c-6.7,0-14.8,0.1-24.4,0.2c-9.6,0.1-18.7,0.3-27.2,0.4
			c-8.6,0.1-15,0.4-19.4,0.7c0-6.1,0.2-12,0.7-17.7c0.4-5.7,1.7-11.1,3.7-16.3c6.1,0,11.1-3.1,15-9.2c3.9-6.1,5.9-17.3,5.9-33.6
			V1126c0-16.6-2.2-28.2-6.5-34.9c-4.4-6.7-11.2-10-20.5-10c-7,0-13.2,2.9-18.7,8.7c-5.5,5.8-9.9,13.7-13.1,23.8
			c-3.2,10-4.8,21.7-4.8,35.1v12.2c0,15.1,1.8,25.2,5.4,30.3c3.6,5.1,8.6,7.6,15,7.6c2.3,5.5,3.7,10.9,4.1,16.1
			c0.4,5.2,0.7,11.2,0.7,17.9c-4.4-0.3-10.5-0.5-18.3-0.7c-7.8-0.1-16.1-0.3-24.6-0.4c-8.6-0.2-16.5-0.2-23.8-0.2
			c-7,0-15.4,0.1-25.3,0.2c-9.9,0.1-19.3,0.3-28.3,0.4c-9,0.1-15.7,0.4-20.1,0.7c0-6.7,0.4-13.1,1.1-19.2c0.7-6.1,1.8-11,3.3-14.8
			c11.3,0,18.8-2.7,22.5-8.1c3.6-5.4,5.4-15.3,5.4-29.9v-47.1l82.8-58c0,3.5-0.5,7.6-1.5,12.2c-1,4.7-2.3,9.4-3.7,14.4
			c2.3-5.8,4.8-11.2,7.4-16.1c2.6-4.9,5.8-9.3,9.6-13.1c7-7,15.5-12.6,25.5-16.8c10-4.2,21.1-6.3,33.3-6.3c13.1,0,25.4,2.4,37.1,7.2
			c11.6,4.8,21,12.4,28.1,22.9c7.1,10.5,10.7,24.1,10.7,41V1160.8z M1321.7,1142.5v-28.8c0-9.6-0.6-17-1.7-22.2
			c-1.2-5.2-3.9-9.1-8.3-11.6c-4.4-2.5-11.3-4.1-20.9-5c0-5.5,0.4-11.2,1.1-17c0.7-5.8,2.2-11,4.6-15.7c21.5,0,40.7-1.5,57.5-4.6
			c16.9-3.1,28.8-6.3,35.7-9.8c4.9,2,8.6,5.3,11.1,9.8c2.5,4.5,3.7,10.5,3.7,18.1L1321.7,1142.5z"/>
		<path d="M1681.3,1235.4c-25.9,0-47.5-4.1-65-12.2c-17.4-8.1-30.4-19.7-39-34.7c-8.6-15-12.9-32.6-12.9-53c0-24.7,5.4-45,16.1-60.8
			c10.7-15.8,25.3-27.6,43.6-35.3c18.3-7.7,38.6-11.6,61-11.6c26.7,0,48.8,4.4,66.3,13.1s30.4,20.6,39,35.5
			c8.6,15,12.9,32.2,12.9,51.7c0,22.7-4.9,42-14.6,58c-9.7,16-23.8,28.2-42.1,36.6C1728.4,1231.2,1706.6,1235.4,1681.3,1235.4z
			 M1689.6,1201.8c9.9,0,17.5-5.7,22.9-17.2c5.4-11.5,8.1-25.5,8.1-42.1c0-18.9-2-34.5-6.1-46.9c-4.1-12.3-9.2-21.5-15.5-27.5
			c-6.3-6-13-8.9-20.3-8.9c-10.8,0-18.7,5.9-23.8,17.7c-5.1,11.8-7.6,25.8-7.6,42.1c0,14.8,1.5,28.6,4.6,41.2
			c3.1,12.6,7.8,22.7,14.2,30.3C1672.4,1198.1,1680.3,1201.8,1689.6,1201.8z"/>
		<path d="M1849.9,1169.6c7.7,2.1,13.3,6.1,16.6,11.8c3.3,5.7,5,15.8,5,30.2c0,16.8-4,33.9-12,51.2c-8,17.3-18.9,32.5-32.8,45.6
			c-6.7-0.5-12.9-1.8-18.6-3.8c-5.7-2-10.2-4.3-13.4-7c17.9-20.3,26.8-36.9,26.8-50c0-5.1-2.5-9.3-7.4-12.6
			c-4.9-3.3-11.9-5.5-21-6.6c0-9.1,0.4-16.7,1.2-23c0.8-6.3,2.5-13.9,5.2-23c10.7-0.5,20.3-1.8,28.8-3.8
			C1836.8,1176.6,1844,1173.6,1849.9,1169.6z"/>
		<path d="M1029.5,1660.6L772.7,1313c-3.2-5.6-7.5-9.5-12.8-11.6c-5.4-2.2-14.4-3.9-27.2-5.1c-1.6-6.8-2.8-14-3.6-21.8
			c-0.8-7.8-1.2-16-1.2-24.8c5.2,0.4,12.8,0.7,23,0.9c10.2,0.2,20.5,0.4,31.1,0.6c10.5,0.2,19,0.3,25.4,0.3c9.9,0,21.7-0.1,35.2-0.3
			c13.5-0.2,24.3-0.7,32.2-1.5l174.4,240.1L1029.5,1660.6z M727.9,1657c0-9.6,0.3-18.1,0.9-25.7c0.6-7.6,1.9-14.5,3.9-20.9
			c12.3-1.6,22-4.7,29-9.3c7-4.6,11.9-12.7,14.9-24.5c3-11.7,4.5-29,4.5-51.7v-237.1l44.8,4.8V1525c0,22.7,1.2,39.9,3.6,51.7
			c2.4,11.7,7.1,19.9,14,24.5c7,4.6,16.8,7.7,29.6,9.3c2,6.4,3.2,13.7,3.6,22.1c0.4,8.4,0.6,16.5,0.6,24.5
			c-5.6-0.4-12.7-0.7-21.5-0.9c-8.8-0.2-17.7-0.4-26.9-0.6c-9.2-0.2-17.1-0.3-23.9-0.3c-6.8,0-15.3,0.1-25.7,0.3
			c-10.4,0.2-20.3,0.4-29.9,0.6C739.9,1656.3,732.7,1656.6,727.9,1657z M1029.5,1660.6l9.6-112.9v-166c0-22.7-1.2-39.9-3.6-51.7
			c-2.4-11.7-7.3-19.9-14.6-24.5c-7.4-4.6-18.2-7.7-32.5-9.3c-1.6-6.8-2.7-14.5-3.3-23.3c-0.6-8.8-0.9-16.5-0.9-23.3
			c5.6,0.4,13.2,0.7,23,0.9c9.8,0.2,19.7,0.4,29.9,0.6c10.2,0.2,18.6,0.3,25.4,0.3c10.3,0,21.7-0.2,34-0.6
			c12.3-0.4,22.1-0.8,29.3-1.2c0,8-0.2,15.7-0.6,23.3c-0.4,7.6-1.6,15.3-3.6,23.3c-10.4,1.2-18.2,4.1-23.6,8.7
			c-5.4,4.6-9.1,12.6-11,24.2c-2,11.6-3,29.1-3,52.6v273.5c-8,2.4-16.2,3.9-24.8,4.5C1050.5,1660.3,1040.7,1660.6,1029.5,1660.6z"/>
		<path d="M1102.7,1657c0-9.9,0.4-18.8,1.2-26.6c0.8-7.8,2.2-14.4,4.2-20c15.9-0.8,26.4-4.7,31.4-11.6c5-7,7.5-20.4,7.5-40.3v-75.8
			c0-9.2-1.2-16.6-3.6-22.4c-2.4-5.8-6.8-10.2-13.1-13.1c-6.4-3-15.5-5.1-27.5-6.3c0-7.6,0.5-15.3,1.5-23.3c1-8,3.1-15.1,6.3-21.5
			c19.9,0,38.4-1,55.5-3c17.1-2,32-4.5,44.8-7.5c12.7-3,22.3-6.1,28.7-9.3c6.8,2.8,11.9,7.3,15.5,13.4c3.6,6.2,5.4,14.4,5.4,24.8
			v143.9c0,19.9,2.6,33.3,7.8,40.3c5.2,7,15.7,10.9,31.7,11.6c2,5.6,3.3,12.2,3.9,20c0.6,7.8,0.9,16.6,0.9,26.6
			c-4.8-0.4-12.5-0.7-23.3-0.9c-10.7-0.2-22.9-0.4-36.4-0.6c-13.5-0.2-27.3-0.3-41.2-0.3c-13.5,0-27.2,0.1-40.9,0.3
			c-13.7,0.2-26,0.4-36.7,0.6C1115.2,1656.3,1107.4,1656.6,1102.7,1657z M1194,1347.6c-18.7,0-33.5-4.4-44.5-13.1
			c-11-8.8-16.4-20.5-16.4-35.2c0-17.5,6.2-30.8,18.5-39.7c12.3-9,27.9-13.4,46.6-13.4c21.1,0,37.1,4.4,48.1,13.1
			c10.9,8.8,16.4,21.7,16.4,38.8c0,14.7-6.1,26.7-18.2,35.8C1232.3,1343.1,1215.5,1347.6,1194,1347.6z"/>
		<path d="M1551.4,1630.1c-10.4,9.6-24.7,17-43,22.4c-18.3,5.4-38.6,8.1-60.9,8.1c-32.6,0-60.8-5.1-84.5-15.2
			c-23.7-10.2-41.9-25.6-54.6-46.3c-12.7-20.7-19.1-47.2-19.1-79.4c0-23.9,5.6-46.8,16.7-68.7c11.1-21.9,27.9-39.8,50.2-53.7
			c22.3-13.9,50.4-20.9,84.2-20.9c24.3,0,44.9,2,61.8,6c16.9,4,32.3,9.8,46.3,17.3c-2.8,11.2-4.8,22.8-6,34.9
			c-1.2,12.1-1.8,26.8-1.8,43.9c-9.2,4-19.3,6.7-30.5,8.1c-11.2,1.4-21.9,2.1-32.2,2.1c0-23.1-3.2-40.4-9.6-52
			c-6.4-11.5-14.7-17.3-25.1-17.3c-13.9,0-24.5,8.9-31.7,26.6c-7.2,17.7-10.7,39.5-10.7,65.4c0,15.1,2.5,30,7.5,44.5
			c5,14.5,13.1,26.5,24.5,35.8c11.3,9.4,26.4,14,45.1,14c12.7,0,24.1-1.3,34-3.9c9.9-2.6,18.5-5.9,25.7-9.9
			c4.4,4.4,7.8,9.9,10.2,16.4C1550.2,1614.9,1551.4,1622.1,1551.4,1630.1z"/>
		<path d="M1705.2,1660.6c-35.4,0-65.1-5.6-89-16.7c-23.9-11.1-41.7-27-53.4-47.5c-11.7-20.5-17.6-44.7-17.6-72.6
			c0-33.8,7.4-61.6,22.1-83.3c14.7-21.7,34.6-37.8,59.7-48.4c25.1-10.5,52.9-15.8,83.6-15.8c36.6,0,66.9,6,90.8,17.9
			c23.9,11.9,41.7,28.2,53.4,48.7c11.7,20.5,17.6,44.1,17.6,70.8c0,31.1-6.7,57.5-20,79.4c-13.3,21.9-32.5,38.6-57.6,50.2
			C1769.7,1654.8,1739.8,1660.6,1705.2,1660.6z M1716.6,1614.6c13.5,0,24-7.9,31.4-23.6c7.4-15.7,11-34.9,11-57.6
			c0-25.9-2.8-47.3-8.4-64.2c-5.6-16.9-12.6-29.5-21.2-37.6c-8.6-8.2-17.8-12.2-27.8-12.2c-14.7,0-25.6,8.1-32.5,24.2
			c-7,16.1-10.5,35.3-10.5,57.6c0,20.3,2.1,39.1,6.3,56.4c4.2,17.3,10.6,31.2,19.4,41.5C1693.1,1609.4,1703.8,1614.6,1716.6,1614.6z
			"/>
	</g>
</g>
<g id="Layer_3" class="st0">
	<g class="st1">
		<path d="M872.2,1237c-45.2,0-80.6-12.2-106.2-36.5s-38.5-59-38.5-104c0-45,12.9-79.7,38.5-103.8c25.6-24.2,61-36.3,106.2-36.3
			c45.5,0,81.1,12,106.6,36.1c25.4,24.2,38.2,58.8,38.2,103.8c0,45-12.7,79.7-38.4,104c-25.6,24.3-61,36.5-106.4,36.5V1237z
			 M882.7,1222.1c12.4,0,21.9-7.2,28.9-21.4s10.5-34.8,10.5-62c0-13.8-0.7-28.9-2.4-45.4c-1.7-16.4-4.4-34.5-8.5-54
			c-4.1-19.5-10.3-35.8-19-48.7c-8.7-12.9-19-19.4-31-19.4c-12.5,0-22.1,7-28.9,21c-6.8,14-10.1,34.5-10.1,61.4
			c0,13.8,0.9,28.9,2.6,45.4c1.7,16.4,4.4,34.7,8.5,54.6c4.1,19.9,10.5,36.3,19.2,49.2c8.7,12.9,19,19.4,31,19.4L882.7,1222.1z"/>
		<path d="M1251.8,1186.3c0,13.2,1,22.2,3.2,27.2c2.2,5,7,10.1,14.4,15.7v3.1H1145v-3.1c7.4-5.5,12.2-10.7,14.4-15.5
			c2.2-4.8,3.4-14,3.6-27.3c0.2-12.2,0.4-25.1,0.4-66.6c0-9.8-2.2-17.2-6.6-22.4c-4.4-5.2-10-7.8-17-7.8c-8.2,0-15.6,4.6-22.4,13.6
			v83c0,13.2,1,22.2,3,27.2c2,5,6.8,10.1,14.2,15.7v3.1h-124.4v-3.1c7.6-5.5,12.6-10.7,14.8-15.5c2.2-4.8,3.4-14,3.4-27.3v-153.6
			c0-12.2-0.6-21.6-2-28.1c-1.4-6.5-3-11.1-4.8-13.8c-1.8-2.7-5.4-6.9-10.8-12.6V975c36.1-2.3,71.7-8.4,106.6-18.2V1088
			c18.8-25.6,42.3-38.4,70.7-38.4c5.8,0,11.6,0.8,17.4,2.1c5.8,1.3,12.6,4,20.2,7.8c7.6,3.8,14,10.3,19,19.5
			c5,9.2,7.4,20.5,7.4,33.8v72.7L1251.8,1186.3z"/>
		<path d="M1576.7,1185.6c0,13.2,1.1,22.2,3.2,27.1c2.1,5,6.9,10.1,14.3,15.7v3.1h-119.4v-3.1c7.3-5.7,12-11.1,14.3-15.9
			c2.3-4.8,3.4-13.8,3.4-26.9V1119c0-9.9-2.1-17.4-6.3-22.3c-4.2-5-9.4-7.4-15.7-7.4c-7.3,0-14.5,4.6-21.8,13.6v83.1
			c0,13.2,1,22.2,2.9,27.1c1.9,5,6.5,10.1,13.6,15.7v3.1h-119v-3.1c7.3-5.5,12-10.7,14.1-15.5c2.1-4.8,3.2-13.9,3.2-27.3V1110
			c0-17-1-28.5-3.1-34.4c-2.1-5.9-6.7-12.6-13.8-20.2v-2.7c32.1-1.7,65.7-7.6,100.7-17.8v53.9c17.4-26.2,39.7-39.2,67-39.2
			c4.4,0,8.8,0.4,13.2,1c4.4,0.6,9.7,2.1,15.9,4.8c6.1,2.7,11.5,6.1,16,10.5c4.6,4.4,8.6,10.5,11.8,18.5c3.2,8,5,17.6,5,28.5v72.8
			H1576.7z"/>
		<path d="M1696.5,1235c-30.6,0-55.2-7.3-73.7-21.9c-18.5-14.6-27.8-37.7-27.8-69.2c0-31.5,9.4-55.2,28.3-71
			c18.9-15.8,44.5-23.8,76.9-23.8c30.8,0,55.3,7.5,73.7,22.2c18.3,14.8,27.6,37.9,27.6,69.2c0,31.5-9.4,55.2-28.3,71
			c-18.9,15.8-44.5,23.7-77,23.7L1696.5,1235z M1708.5,1223.8c8.7,0,13.2-11.2,13.2-33.5c0-8.4-0.4-18.7-1.2-31
			c-0.9-12.3-2.3-26.3-4.4-42.2c-2.1-15.8-5.5-29.2-10.1-40c-4.6-10.9-10.1-16.2-16.5-16.2c-9.3,0-13.9,10.9-13.7,32.7
			c0,12.3,0.7,27.2,2.1,45c1.4,17.8,4.8,36.3,10.3,55.7c5.5,19.4,12.3,29,20.3,29L1708.5,1223.8z"/>
		<path d="M1857.6,1160.3c10.3,0,19.4,3.9,27.1,11.8s11.6,18.6,11.6,32.1c0,16-5.7,33.6-17.3,52.4s-28,32.6-49.2,41.7l-1.8-3.7
			c15.9-17.9,26.7-38.4,32.8-61.4h-2.6c-10.5,0-19.4-3.3-26.4-10.1s-10.5-15.3-10.5-25.6s3.7-19.2,10.9-26.6
			c7.2-7.4,15.9-11.1,26-11.1L1857.6,1160.3z"/>
	</g>
	<g class="st1">
		<path d="M1134.8,1275.4c-16.3,9.9-27.7,18.8-34.2,26.5c-6.5,7.8-11.1,18.8-14.1,33c-3,14.2-4.3,36.5-4.3,66.8v262H979.7
			c-46.7-81.3-105.4-177-176.2-287.2v156.6c0,30.3,1.4,52.6,4.1,66.8c2.7,14.2,7.3,25.2,13.8,33c6.5,7.8,17.9,16.6,34.2,26.5v4.3
			H727.7v-4.3c16.3-9.9,27.7-18.8,34.2-26.5c6.5-7.8,11.1-18.8,14.1-33c3-14.2,4.6-36.5,4.6-66.8v-166.5c0-17.2-4.1-32.2-12.2-45.3
			c-8.1-13.1-21.7-28.4-41-45.9v-4.3h157.8c48.1,72.7,106.2,166.3,174.1,280.8V1402c0-30.3-1.4-52.6-4.1-66.8
			c-2.7-14.2-7.3-25.2-13.8-33c-6.5-7.8-15.1-16.6-31.4-26.5v-4.3H1135L1134.8,1275.4z"/>
		<path d="M1124.9,1660.2c10.2-7.8,16.9-15,19.8-21.7s4.6-19.6,4.6-38.3v-105.9c0-17.2-0.8-30.3-2.7-39.2c-1.9-8.8-4-15.3-6.4-19
			c-2.4-3.8-7.2-9.7-14.5-18v-4.3c49.3-3.2,97.1-11.8,143.5-25.7v211.9c0,18.5,1.6,31.1,4.6,38.1c3,7,9.4,14.2,19.3,22v4.3h-167.6
			L1124.9,1660.2z M1204.5,1368.2c-15.8,0-29.2-5.4-40.2-15.8s-16.4-22.8-16.4-37s5.6-26.5,16.6-36.7c11-10.2,24.4-15.3,40.2-15.3
			c15.3,0,28.4,5.1,39.4,15.3c11,10.2,16.6,22.5,16.6,36.7s-5.4,26.5-16.4,37s-24.1,15.6-39.4,15.6L1204.5,1368.2z"/>
		<path d="M1440.2,1669.6c-17.4,0-34.3-2.7-50.7-8c-16.4-5.4-31.6-13.7-45.6-24.7c-13.9-11-24.9-26-33.3-44.8
			c-8.3-18.8-12.3-40.2-12.3-64.4c0-46.1,13.9-80.7,41.6-103.8c27.6-23.1,61.4-34.6,101.4-34.6c54.2,0,92.8,21.2,116.1,63.8
			l-68.1,50.4l-4.6-1.6c-1.3-24.1-5.9-46.1-13.4-65.7c-7.5-19.6-18-29.5-31.1-29.5c-10.5,0-18.5,7-24.1,20.6
			c-5.6,13.7-8.6,32.2-8.6,55.5c0,34.9,6.4,62.5,19.6,82.9s33.3,30.6,60.3,30.6c31.1,0,56.6-15.8,76.4-47.2l5.1,2.7
			c-2.1,14.8-6.2,28.4-11.8,41.3s-13.1,25.2-22.8,37.3c-9.7,12.1-22.5,21.5-38.6,28.4c-16.1,7-34.3,10.5-54.4,10.5L1440.2,1669.6z"
			/>
		<path d="M1738.4,1669.1c-46.1,0-83.1-11-111-33c-27.9-22-41.8-56.9-41.8-104.3c0-47.5,14.2-83.1,42.6-107
			c28.4-23.9,67-35.9,115.9-35.9c46.4,0,83.4,11.3,111,33.5s41.6,57.1,41.6,104.3c0,47.5-14.2,83.1-42.6,107
			c-28.4,23.9-67,35.7-116.1,35.7L1738.4,1669.1z M1756.4,1652.2c13.1,0,19.8-16.9,19.8-50.4c0-12.6-0.5-28.2-1.9-46.7
			s-3.5-39.7-6.7-63.6c-3.2-23.9-8.3-44-15.3-60.3c-7-16.4-15.3-24.4-24.9-24.4c-13.9,0-20.9,16.4-20.6,49.3c0,18.5,1.1,41,3.2,67.8
			s7.2,54.7,15.6,83.9c8.3,29.2,18.5,43.7,30.6,43.7L1756.4,1652.2z"/>
	</g>
</g>
<g id="Layer_3_copy" class="st0">
	<g class="st1">
		<g>
			<path d="M872.3,1224c-45.2,0-80.6-12.2-106.2-36.5s-38.5-59-38.5-104c0-45,12.9-79.7,38.5-103.8c25.6-24.2,61-36.3,106.2-36.3
				c45.5,0,81.1,12,106.6,36.1c25.4,24.2,38.2,58.8,38.2,103.8c0,45-12.7,79.7-38.4,104c-25.6,24.3-61,36.5-106.4,36.5V1224z
				 M882.8,1209.1c12.4,0,21.9-7.2,28.9-21.4s10.5-34.8,10.5-62c0-13.8-0.7-28.9-2.4-45.4c-1.7-16.4-4.4-34.5-8.5-54
				c-4.1-19.5-10.3-35.8-19-48.7c-8.7-12.9-19-19.4-31-19.4c-12.5,0-22.1,7-28.9,21c-6.8,14-10.1,34.5-10.1,61.4
				c0,13.8,0.9,28.9,2.6,45.4c1.7,16.4,4.4,34.7,8.5,54.6c4.1,19.9,10.5,36.3,19.2,49.2c8.7,12.9,19,19.4,31,19.4L882.8,1209.1z"/>
			<path d="M1251.9,1185.1c0.1,12.4,0.1,15.3,0.4,22.4c0.2,5,0.4,8.1,6,15.5c3.2,4.2,2.5,7.1,2.5,7.1c0,2.6-3.1,4.8-5,3.1
				c-11-10.4-59.8-23.8-102.9,0c-2.4,1.3-5.4-0.1-5.3-2.9c0-0.2,0-0.4,0-0.6c0.1-2.6,1.7-4.7,3.4-6.7c8.1-9.7,8.9-15.2,9.8-18.3
				c1.1-4.1,1.9-4.4,2.1-19.2c0.2-12.2,0.4-37.1,0.4-78.6c0-9.8-2.2-17.2-6.6-22.4c-4.4-5.2-10-7.8-17-7.8
				c-8.2,0-15.6,4.6-22.4,13.6v83c0,13.2,1,22.2,3,27.2c2,5,6.8,10.1,14.2,15.7v3.1h-124.4v-3.1c7.6-5.5,12.6-10.7,14.8-15.5
				c2.2-4.8,3.4-14,3.4-27.3v-153.6c0-12.2-0.6-21.6-2-28.1c-1.4-6.5-3-11.1-4.8-13.8c-1.8-2.7-5.4-6.9-10.8-12.6V962
				c36.1-2.3,71.7-8.4,106.6-18.2V1075c18.8-25.6,42.3-38.4,70.7-38.4c5.8,0,11.6,0.8,17.4,2.1c5.8,1.3,12.6,4,20.2,7.8
				c7.6,3.8,14,10.3,19,19.5c5,9.2,7.4,20.5,7.4,33.8"/>
			<path d="M1576.7,1172.6c0,13.2,1.1,22.2,3.2,27.1c2.1,5,6.9,10.1,14.3,15.7v3.1h-119.4v-3.1c7.3-5.7,12-11.1,14.3-15.9
				c2.3-4.8,3.4-13.8,3.4-26.9V1106c0-9.9-2.1-17.4-6.3-22.3c-4.2-5-9.4-7.4-15.7-7.4c-7.3,0-14.5,4.6-21.8,13.6v83.1
				c0,13.2,1,22.2,2.9,27.1c1.9,5,6.5,10.1,13.6,15.7v3.1h-119v-3.1c7.3-5.5,12-10.7,14.1-15.5c2.1-4.8,3.2-13.9,3.2-27.3V1097
				c0-17-1-28.5-3.1-34.4c-2.1-5.9-6.7-12.6-13.8-20.2v-2.7c32.1-1.7,65.7-7.6,100.7-17.8v53.9c17.4-26.2,39.7-39.2,67-39.2
				c4.4,0,8.8,0.4,13.2,1c4.4,0.6,9.7,2.1,15.9,4.8c6.1,2.7,11.5,6.1,16,10.5c4.6,4.4,8.6,10.5,11.8,18.5c3.2,8,5,17.6,5,28.5v72.8
				H1576.7z"/>
			<path d="M1696.6,1222c-30.6,0-55.2-7.3-73.7-21.9c-18.5-14.6-27.8-37.7-27.8-69.2c0-31.5,9.4-55.2,28.3-71
				c18.9-15.8,44.5-23.8,76.9-23.8c30.8,0,55.3,7.5,73.7,22.2c18.3,14.8,27.6,37.9,27.6,69.2c0,31.5-9.4,55.2-28.3,71
				c-18.9,15.8-44.5,23.7-77,23.7L1696.6,1222z M1708.5,1210.8c8.7,0,13.2-11.2,13.2-33.5c0-8.4-0.4-18.7-1.2-31
				c-0.9-12.3-2.3-26.3-4.4-42.2c-2.1-15.8-5.5-29.2-10.1-40c-4.6-10.9-10.1-16.2-16.5-16.2c-9.3,0-13.9,10.9-13.7,32.7
				c0,12.3,0.7,27.2,2.1,45c1.4,17.8,4.8,36.3,10.3,55.7c5.5,19.4,12.3,29,20.3,29L1708.5,1210.8z"/>
			<path d="M1857.7,1147.3c10.3,0,19.4,3.9,27.1,11.8s11.6,18.6,11.6,32.1c0,16-5.7,33.6-17.3,52.4s-28,32.6-49.2,41.7l-1.8-3.7
				c15.9-17.9,26.7-38.4,32.8-61.4h-2.6c-10.5,0-19.4-3.3-26.4-10.1s-10.5-15.3-10.5-25.6s3.7-19.2,10.9-26.6
				c7.2-7.4,15.9-11.1,26-11.1L1857.7,1147.3z"/>
		</g>
		<g>
			<path d="M1134.7,1262.4c-16.3,9.9-27.7,18.8-34.2,26.5c-6.5,7.8-11.1,18.8-14.1,33c-3,14.2-4.3,36.5-4.3,66.8v262H979.6
				c-46.7-81.3-105.4-177-176.2-287.2v156.6c0,30.3,1.4,52.6,4.1,66.8c2.7,14.2,7.3,25.2,13.8,33c6.5,7.8,17.9,16.6,34.2,26.5v4.3
				H727.6v-4.3c16.3-9.9,27.7-18.8,34.2-26.5c6.5-7.8,11.1-18.8,14.1-33c3-14.2,4.6-36.5,4.6-66.8v-166.5c0-17.2-4.1-32.2-12.2-45.3
				c-8.1-13.1-21.7-28.4-41-45.9v-4.3h157.8c48.1,72.7,106.2,166.3,174.1,280.8V1389c0-30.3-1.4-52.6-4.1-66.8
				c-2.7-14.2-7.3-25.2-13.8-33c-6.5-7.8-15.1-16.6-31.4-26.5v-4.3H1135L1134.7,1262.4z"/>
			<path d="M1124.8,1647.2c10.2-7.8,16.9-15,19.8-21.7s4.6-19.6,4.6-38.3v-105.9c0-17.2-0.8-30.3-2.7-39.2c-1.9-8.8-4-15.3-6.4-19
				c-2.4-3.8-7.2-9.7-14.5-18v-4.3c49.3-3.2,97.1-11.8,143.5-25.7v211.9c0,18.5,1.6,31.1,4.6,38.1c3,7,9.4,14.2,19.3,22v4.3h-167.6
				L1124.8,1647.2z M1204.4,1355.2c-15.8,0-29.2-5.4-40.2-15.8s-16.4-22.8-16.4-37s5.6-26.5,16.6-36.7c11-10.2,24.4-15.3,40.2-15.3
				c15.3,0,28.4,5.1,39.4,15.3c11,10.2,16.6,22.5,16.6,36.7s-5.4,26.5-16.4,37s-24.1,15.6-39.4,15.6L1204.4,1355.2z"/>
			<path d="M1440.2,1656.6c-17.4,0-34.3-2.7-50.7-8c-16.4-5.4-31.6-13.7-45.6-24.7c-13.9-11-24.9-26-33.3-44.8
				c-8.3-18.8-12.3-40.2-12.3-64.4c0-46.1,13.9-80.7,41.6-103.8c27.6-23.1,61.4-34.6,101.4-34.6c54.2,0,92.8,21.2,116.1,63.8
				l-68.1,50.4l-4.6-1.6c-1.3-24.1-5.9-46.1-13.4-65.7c-7.5-19.6-18-29.5-31.1-29.5c-10.5,0-18.5,7-24.1,20.6
				c-5.6,13.7-8.6,32.2-8.6,55.5c0,34.9,6.4,62.5,19.6,82.9s33.3,30.6,60.3,30.6c31.1,0,56.6-15.8,76.4-47.2l5.1,2.7
				c-2.1,14.8-6.2,28.4-11.8,41.3s-13.1,25.2-22.8,37.3c-9.7,12.1-22.5,21.5-38.6,28.4c-16.1,7-34.3,10.5-54.4,10.5L1440.2,1656.6z"
				/>
			<path d="M1738.4,1656.1c-46.1,0-83.1-11-111-33c-27.9-22-41.8-56.9-41.8-104.3c0-47.5,14.2-83.1,42.6-107
				c28.4-23.9,67-35.9,115.9-35.9c46.4,0,83.4,11.3,111,33.5s41.6,57.1,41.6,104.3c0,47.5-14.2,83.1-42.6,107
				c-28.4,23.9-67,35.7-116.1,35.7L1738.4,1656.1z M1756.3,1639.2c13.1,0,19.8-16.9,19.8-50.4c0-12.6-0.5-28.2-1.9-46.7
				s-3.5-39.7-6.7-63.6c-3.2-23.9-8.3-44-15.3-60.3c-7-16.4-15.3-24.4-24.9-24.4c-13.9,0-20.9,16.4-20.6,49.3
				c0,18.5,1.1,41,3.2,67.8s7.2,54.7,15.6,83.9c8.3,29.2,18.5,43.7,30.6,43.7L1756.3,1639.2z"/>
		</g>
	</g>
</g>
<g id="Layer_3_copy_2">
	<g>
		<g>
			<path d="M872.3,1224c-45.2,0-80.6-12.2-106.2-36.5s-38.5-59-38.5-104c0-45,12.9-79.7,38.5-103.8c25.6-24.2,61-36.3,106.2-36.3
				c45.5,0,81.1,12,106.6,36.1c25.4,24.2,38.2,58.8,38.2,103.8c0,45-12.7,79.7-38.4,104c-25.6,24.3-61,36.5-106.4,36.5V1224z
				 M882.8,1209.1c12.4,0,21.9-7.2,28.9-21.4s10.5-34.8,10.5-62c0-13.8-0.7-28.9-2.4-45.4c-1.7-16.4-4.4-34.5-8.5-54
				c-4.1-19.5-10.3-35.8-19-48.7c-8.7-12.9-19-19.4-31-19.4c-12.5,0-22.1,7-28.9,21c-6.8,14-10.1,34.5-10.1,61.4
				c0,13.8,0.9,28.9,2.6,45.4c1.7,16.4,4.4,34.7,8.5,54.6c4.1,19.9,10.5,36.3,19.2,49.2c8.7,12.9,19,19.4,31,19.4L882.8,1209.1z"/>
			<path d="M1251.9,1183.7c0.1,12.4,0.1,3.9,0.1,11.9c0,6.2,0.4,21.6,1.2,26.6c1.2,7.4,7.6,17.8,7.6,17.8c0,4.1,0.5,4.1-1.4,2.7
				c-32.4-23.3-74.9-22-106.5-2.1c-5.3,3.3-5.1,3.9-5.1,1.8c0-0.2,0.2-2.4,0.2-2.7c0-0.3,3.4-4.4,5.7-8.3c2.1-3.5,3.2-5.2,5.1-8.9
				c4.4-8.6,4-20.3,4.1-29.6c0.2-12.2,0.4-44.7,0.4-86.1c0-9.8-2.2-17.2-6.6-22.4c-4.4-5.2-10-7.8-17-7.8c-8.2,0-15.6,4.6-22.4,13.6
				v83c0,13.2,1,22.2,3,27.2c2,5,6.8,10.1,14.2,15.7v3.1h-124.4v-3.1c7.6-5.5,12.6-10.7,14.8-15.5c2.2-4.8,3.4-14,3.4-27.3v-153.6
				c0-12.2-0.6-21.6-2-28.1c-1.4-6.5-3-11.1-4.8-13.8c-1.8-2.7-5.4-6.9-10.8-12.6V962c36.1-2.3,71.7-8.4,106.6-18.2V1075
				c18.8-25.6,42.3-38.4,70.7-38.4c5.8,0,11.6,0.8,17.4,2.1c5.8,1.3,12.6,4,20.2,7.8c7.6,3.8,14,10.3,19,19.5
				c5,9.2,7.4,20.5,7.4,33.8"/>
			<path d="M1550,1283.9c0,14.4,1.3,24.2,3.6,29.7c2.3,5.4,7.5,11.1,15.7,17.1v3.3h-130.6v-3.3c7.9-6.3,13.2-12.1,15.7-17.3
				c2.5-5.2,3.8-15,3.8-29.5v-93.1c0-10.9-2.3-19-6.9-24.5c-4.6-5.4-10.2-8.2-17.1-8.2c-7.9,0-15.9,5-23.8,14.8v111.1
				c0,14.4,1,24.2,3.1,29.7c2.1,5.4,7.1,11.1,14.8,17.1v3.3h-130.2v-3.3c7.9-6.1,13.2-11.7,15.5-16.9c2.3-5.2,3.6-15.3,3.6-29.9
				V1181c0-18.6-1-31.1-3.3-37.6c-2.3-6.5-7.3-13.8-15-22.2v-2.9c35.1-1.9,71.9-8.4,110.1-19.4v58.9c19-28.6,43.5-42.8,73.4-42.8
				c4.8,0,9.6,0.4,14.4,1c4.8,0.6,10.7,2.3,17.3,5.2c6.7,2.9,12.5,6.7,17.6,11.5c5,4.8,9.4,11.5,13,20.3s5.4,19.2,5.4,31.1v99.8
				H1550z"/>
			<path d="M1870.1,1285.6c7,0,13.1,2.6,18.4,8s7.9,12.6,7.9,21.7c0,10.9-3.9,22.7-11.7,35.5c-7.9,12.7-19,22.1-33.3,28.2l-1.2-2.5
				c10.7-12.1,18.1-26,22.2-41.6h-1.7c-7.1,0-13.1-2.2-17.9-6.9s-7.1-10.4-7.1-17.4c0-7,2.5-13,7.4-18c4.9-5,10.7-7.5,17.6-7.5
				L1870.1,1285.6z"/>
		</g>
		<g>
			<path d="M1134.7,1262.4c-16.3,9.9-27.7,18.8-34.2,26.5c-6.5,7.8-11.1,18.8-14.1,33c-3,14.2-4.3,36.5-4.3,66.8v262H979.6
				c-46.7-81.3-105.4-177-176.2-287.2v156.6c0,30.3,1.4,52.6,4.1,66.8c2.7,14.2,7.3,25.2,13.8,33c6.5,7.8,17.9,16.6,34.2,26.5v4.3
				H727.6v-4.3c16.3-9.9,27.7-18.8,34.2-26.5c6.5-7.8,11.1-18.8,14.1-33c3-14.2,4.6-36.5,4.6-66.8v-166.5c0-17.2-4.1-32.2-12.2-45.3
				c-8.1-13.1-21.7-28.4-41-45.9v-4.3h157.8c48.1,72.7,106.2,166.3,174.1,280.8V1389c0-30.3-1.4-52.6-4.1-66.8
				c-2.7-14.2-7.3-25.2-13.8-33c-6.5-7.8-15.1-16.6-31.4-26.5v-4.3H1135L1134.7,1262.4z"/>
			<path d="M1124.8,1647.2c10.2-7.8,16.9-15,19.8-21.7s4.6-19.6,4.6-38.3v-105.9c0-17.2-0.8-30.3-2.7-39.2c-1.9-8.8-4-15.3-6.4-19
				c-2.4-3.8-7.2-9.7-14.5-18v-4.3c49.3-3.2,97.1-11.8,143.5-25.7v211.9c0,18.5,1.6,31.1,4.6,38.1c3,7,9.4,14.2,19.3,22v4.3h-167.6
				L1124.8,1647.2z M1204.4,1362.2c-15.8,0-29.2-4.4-40.2-14.8s-16.4-22.8-16.4-37s5.6-26.5,16.6-36.7c11-10.2,24.4-15.3,40.2-15.3
				c15.3,0,28.4,5.1,39.4,15.3c11,10.2,16.6,22.5,16.6,36.7s-5.4,26.5-16.4,37s-24.1,14.8-39.4,14.8L1204.4,1362.2z"/>
			<path d="M1440.2,1656.6c-17.4,0-34.3-2.7-50.7-8c-16.4-5.4-31.6-13.7-45.6-24.7c-13.9-11-24.9-26-33.3-44.8
				c-8.3-18.8-12.3-40.2-12.3-64.4c0-46.1,13.9-80.7,41.6-103.8c27.6-23.1,61.4-34.6,101.4-34.6c54.2,0,92.8,21.2,116.1,63.8
				l-68.1,50.4l-4.6-1.6c-1.3-24.1-5.9-46.1-13.4-65.7c-7.5-19.6-18-29.5-31.1-29.5c-10.5,0-18.5,7-24.1,20.6
				c-5.6,13.7-8.6,32.2-8.6,55.5c0,34.9,6.4,62.5,19.6,82.9s33.3,30.6,60.3,30.6c31.1,0,56.6-15.8,76.4-47.2l5.1,2.7
				c-2.1,14.8-6.2,28.4-11.8,41.3s-13.1,25.2-22.8,37.3c-9.7,12.1-22.5,21.5-38.6,28.4c-16.1,7-34.3,10.5-54.4,10.5L1440.2,1656.6z"
				/>
			<path d="M1738.4,1656.1c-46.1,0-83.1-11-111-33c-27.9-22-41.8-56.9-41.8-104.3c0-47.5,14.2-83.1,42.6-107
				c28.4-23.9,67-35.9,115.9-35.9c46.4,0,83.4,11.3,111,33.5s41.6,57.1,41.6,104.3c0,47.5-14.2,83.1-42.6,107
				c-28.4,23.9-67,35.7-116.1,35.7L1738.4,1656.1z M1756.3,1639.2c13.1,0,19.8-16.9,19.8-50.4c0-12.6-0.5-28.2-1.9-46.7
				s-3.5-39.7-6.7-63.6c-3.2-23.9-8.3-44-15.3-60.3c-7-16.4-15.3-24.4-24.9-24.4c-13.9,0-20.9,16.4-20.6,49.3
				c0,18.5,1.1,41,3.2,67.8s7.2,54.7,15.6,83.9c8.3,29.2,18.5,43.7,30.6,43.7L1756.3,1639.2z"/>
			<path d="M1709.3,1339c-40.2,0-72.5-8.8-96.8-26.5c-24.3-17.7-36.5-45.7-36.5-83.8c0-38.1,12.4-66.8,37.2-86
				c24.8-19.2,58.5-28.9,101-28.9c40.4,0,72.7,9,96.8,26.9c24.1,17.9,36.2,45.9,36.2,83.8c0,38.1-12.4,66.8-37.2,86
				c-24.8,19.2-58.5,28.7-101.2,28.7L1709.3,1339z M1724,1325.4c11.5,0,21.3-13.6,21.3-40.5c0-14.3-0.2-18.7-1.6-37.5
				c-1.2-14.9-3-31.9-5.8-51.1c-2.8-19.2-7.2-35.3-13.3-48.5c-6.1-13.1-13.3-19.6-21.7-19.6c-12.2,0-18.2,13.1-18,39.6
				c0,14.9,0.9,33,2.8,54.5c1.9,21.5,6.3,44,13.6,67.4c7.2,23.5,16.1,35.1,26.7,35.1L1724,1325.4z"/>
		</g>
	</g>
</g>
</svg>
