<?xml version="1.0" encoding="utf-8"?>
<!-- Generator: Adobe Illustrator 26.3.1, SVG Export Plug-In . SVG Version: 6.00 Build 0)  -->
<svg version="1.1" id="Layer_1" xmlns="http://www.w3.org/2000/svg" xmlns:xlink="http://www.w3.org/1999/xlink" x="0px" y="0px"
	 viewBox="0 0 1920 1080" style="enable-background:new 0 0 1920 1080;" xml:space="preserve">
<style type="text/css">
	.st0{fill:#EFE635;}
</style>
<g>
	<g>
		<g>
			<path class="st0" d="M158.46,529.36l0.68-2.38c19.86-10.31,33.31-19.53,39.98-27.41c6.61-7.81,13.15-22.88,19.44-44.8
				l84.93-296.19c6.57-22.91,8.7-37.95,6.5-45.97c-2.13-7.78-10.05-16.7-24.22-27.23l0.81-2.83h224.53l-0.68,2.38
				c-20.34,10.56-33.39,19.43-39.89,27.1c-6.61,7.81-13.24,23.19-19.7,45.72l-90.92,317.08c-2.74,9.57-0.85,17.61,5.64,23.92
				c6.24,6.06,15.18,9.61,26.59,10.56c0.04,0,0.08,0.01,0.12,0.01c0.03,0,0.05,0,0.08,0c29.09-1.54,59.93-15.19,91.66-40.58
				c31.38-25.1,59.85-54.24,84.65-86.62h1.06l-56.97,147.24H158.46z"/>
			<path class="st0" d="M508.87,84.06c-20.03,10.45-32.95,19.3-39.48,27.02c-6.84,8.08-13.39,23.22-20,46.28l-90.92,317.08
				c-2.91,10.14-0.88,18.69,6.04,25.41c6.49,6.31,15.75,10,27.51,10.98c0.08,0.01,0.17,0.01,0.25,0.01c0.05,0,0.11,0,0.16,0
				c29.41-1.56,60.54-15.32,92.52-40.9c29.73-23.78,56.86-51.18,80.74-81.52l-53.96,139.47H160.69
				c19.57-10.22,32.88-19.41,39.57-27.32c6.85-8.09,13.3-22.92,19.73-45.36L304.93,159c6.65-23.18,8.78-38.48,6.51-46.78
				c-2.18-7.96-10.02-16.94-23.94-27.41l0.21-0.75H508.87 M513.1,81.06H285.45l-1.41,4.92c14.21,10.45,22.41,19.36,24.51,27.04
				c2.1,7.68-0.07,22.74-6.5,45.17l-84.93,296.19c-6.26,21.81-12.64,36.56-19.14,44.24c-6.5,7.68-19.9,16.9-40.1,27.34l-1.41,4.92
				h357.3l58.13-150.24h-3.99c-25.1,32.87-53.35,61.76-84.84,86.95c-31.49,25.19-61.79,38.71-90.8,40.25
				c-11.1-0.92-19.66-4.3-25.67-10.14c-6.01-5.84-7.89-13.21-5.24-22.43l90.92-317.08c6.43-22.43,12.9-37.48,19.4-45.17
				c6.5-7.68,19.81-16.59,40.01-27.04L513.1,81.06L513.1,81.06z"/>
		</g>
	</g>
	<g>
		<g>
			<path class="st0" d="M1356.66,996.4l0.66-2.31c19.57-10.16,32.82-19.25,39.4-27.01c6.52-7.7,12.96-22.55,19.16-44.16
				l83.69-291.88c6.47-22.58,8.57-37.4,6.41-45.32c-2.1-7.67-9.91-16.46-23.87-26.84l0.79-2.76h221.23l-0.66,2.31
				c-20.04,10.4-32.9,19.14-39.31,26.71c-6.52,7.7-13.05,22.86-19.42,45.07l-89.6,312.47c-2.71,9.44-0.83,17.38,5.56,23.59
				c6.15,5.97,14.97,9.48,26.21,10.41c0.04,0,0.18,0,0.2,0c28.67-1.52,59.07-14.97,90.35-39.99c30.92-24.73,58.98-53.45,83.42-85.36
				h1.01l-56.13,145.06H1356.66z"/>
			<path class="st0" d="M1701.79,557.63c-19.65,10.27-32.34,18.96-38.77,26.55c-6.75,7.97-13.2,22.9-19.71,45.62l-89.6,312.47
				c-2.87,10.01-0.86,18.45,5.96,25.08c6.4,6.22,15.53,9.87,27.13,10.83c0.08,0.01,0.17,0.01,0.25,0.01c0.05,0,0.11,0,0.16,0
				c28.99-1.54,59.68-15.1,91.21-40.32c29.23-23.38,55.91-50.3,79.39-80.11l-53.07,137.14h-345.72
				c19.2-10.05,32.26-19.08,38.85-26.85c6.75-7.97,13.11-22.6,19.46-44.71l83.69-291.88c6.55-22.85,8.65-37.94,6.41-46.13
				c-2.15-7.85-9.87-16.7-23.59-27.02l0.19-0.68H1701.79 M1706.13,554.63h-224.35l-1.39,4.85c14,10.29,22.08,19.07,24.15,26.64
				c2.07,7.57-0.07,22.41-6.4,44.51l-83.69,291.88c-6.17,21.5-12.45,36.03-18.86,43.6c-6.41,7.57-19.61,16.65-39.52,26.95
				l-1.39,4.84h352.13l57.29-148.06h-3.94c-24.73,32.4-52.57,60.86-83.61,85.69c-31.04,24.83-60.9,38.15-89.49,39.66
				c-10.94-0.91-19.37-4.24-25.29-9.99c-5.92-5.75-7.77-13.02-5.17-22.1l89.6-312.47c6.34-22.1,12.71-36.94,19.12-44.51
				c6.41-7.57,19.52-16.35,39.43-26.64L1706.13,554.63L1706.13,554.63z"/>
		</g>
	</g>
	<g>
		<g>
			<path class="st0" d="M520.97,997.61l0.66-2.31c19.58-10.17,32.83-19.25,39.4-27.01c6.52-7.7,12.96-22.56,19.16-44.16l83.7-291.88
				c6.48-22.58,8.57-37.4,6.41-45.32c-2.1-7.67-9.91-16.46-23.87-26.84l0.79-2.76H990l-31.83,149.3h-2.16
				c-0.73-33.75-10-63.98-27.56-89.87c-17.88-26.35-46.61-39.72-85.41-39.72h-17.26c-0.67,0-1.26,0.44-1.44,1.09l-49.83,173.8
				c-0.13,0.45-0.04,0.94,0.24,1.32c0.28,0.38,0.73,0.6,1.2,0.6h19.07c20.9,0,41.74-5.77,61.92-17.15
				c19.59-11.04,36.62-24.63,50.63-40.38h0.36l-39.51,137.79h-0.76c-4.98-17.57-13.86-32.41-26.41-44.11
				c-12.58-11.73-29.66-17.67-50.78-17.67c-0.54,0-1.09,0-1.64,0.01l-19.27,0.61c-0.65,0.02-1.21,0.46-1.39,1.09l-48.36,168.65
				c-3.03,10.56-0.87,19.04,6.42,25.18c6.96,5.86,16.75,8.83,29.11,8.83h7.57c29.48,0,60.38-12.64,91.85-37.56
				c31.29-24.79,60.04-54.24,85.46-87.56l1.63,0.47l-56.33,145.57H520.97z"/>
			<path class="st0" d="M988.15,558.84l-30.74,144.2c-1.29-32.61-10.6-61.89-27.71-87.11c-18.17-26.79-47.33-40.38-86.66-40.38
				h-17.26c-1.34,0-2.51,0.89-2.88,2.17l-49.83,173.8c-0.26,0.91-0.08,1.88,0.49,2.63c0.57,0.75,1.45,1.19,2.4,1.19h19.07
				c21.17,0,42.25-5.84,62.65-17.34c18-10.15,33.86-22.43,47.22-36.56l-36.89,128.64c-5.22-16.27-13.86-30.1-25.74-41.18
				c-12.86-11.99-30.29-18.07-51.8-18.08c-0.55,0-1.1,0-1.66,0.01c-0.02,0-0.03,0-0.05,0l-19.25,0.61c-1.3,0.04-2.43,0.92-2.79,2.17
				l-48.36,168.65c-3.21,11.18-0.89,20.18,6.89,26.74c7.23,6.09,17.35,9.18,30.08,9.18h7.57c15,0,30.42-3.21,45.86-9.54
				c15.3-6.27,31.09-15.81,46.92-28.35c30.29-24,58.2-52.35,83.03-84.33l-54.23,140.14H523.33c19.2-10.05,32.27-19.08,38.85-26.85
				c6.75-7.97,13.11-22.6,19.46-44.71l83.69-291.88c6.55-22.85,8.65-37.94,6.41-46.13c-2.14-7.85-9.87-16.7-23.59-27.02l0.19-0.68
				H988.15 M991.85,555.84H646.09l-1.39,4.84c14,10.3,22.08,19.08,24.15,26.65c2.07,7.57-0.07,22.41-6.4,44.51l-83.69,291.88
				c-6.16,21.5-12.45,36.03-18.86,43.6c-6.41,7.57-19.61,16.65-39.52,26.95l-1.39,4.84h367.57l57.29-148.06l-4.19-1.21
				c-25.77,33.91-54.48,63.28-85.82,88.11c-31.34,24.83-61.55,37.24-90.91,37.24h-7.57c-11.81,0-21.32-2.73-28.15-8.48
				c-6.83-5.75-8.81-13.63-5.94-23.62l48.36-168.65l19.25-0.61c0.54-0.01,1.08-0.01,1.61-0.01c20.82,0,37.41,5.76,49.75,17.27
				c12.66,11.81,21.43,26.65,26.29,44.51h3.03l40.37-140.79h-3.03c-13.9,15.75-30.83,29.37-50.69,40.57
				c-19.87,11.2-40.29,16.96-61.18,16.96h-19.07l49.83-173.8h17.26c38.45,0,66.51,13.02,84.17,39.06
				c17.66,26.04,26.85,56.32,27.33,90.53h4.84L991.85,555.84L991.85,555.84z"/>
		</g>
	</g>
	<g>
		<g>
			<path class="st0" d="M827.99,533.09c-60.24,0-116.78-23.37-159.21-65.81s-65.81-98.98-65.81-159.21
				c0-124.74,100.94-226.23,225.02-226.23c124.41,0,225.63,101.49,225.63,226.23c0,60.2-23.48,116.74-66.11,159.21
				C944.92,509.71,888.27,533.09,827.99,533.09z M827.99,197.54c-60.27,0-109.31,49.31-109.31,109.91
				c0,29.14,11.39,56.67,32.08,77.52c20.73,20.89,48.15,32.39,77.23,32.39c60.61,0,109.91-49.31,109.91-109.92
				C937.91,246.85,888.6,197.54,827.99,197.54z"/>
			<path class="st0" d="M827.99,83.33c123.58,0,224.13,100.81,224.13,224.73c0,30.24-5.93,59.55-17.62,87.11
				c-11.29,26.62-27.45,50.52-48.05,71.04c-20.58,20.5-44.55,36.6-71.24,47.84c-27.62,11.63-56.96,17.53-87.22,17.53
				c-30.25,0-59.56-5.9-87.12-17.53c-26.63-11.24-50.53-27.33-71.03-47.84c-20.51-20.51-36.6-44.41-47.84-71.03
				c-11.63-27.56-17.53-56.87-17.53-87.12c0-30.26,5.9-59.63,17.53-87.31c11.25-26.76,27.34-50.8,47.85-71.45
				c20.52-20.68,44.42-36.91,71.04-48.25C768.46,89.29,797.77,83.33,827.99,83.33 M827.99,418.87c29.74,0,57.73-11.66,78.82-32.83
				c21.02-21.1,32.6-49.01,32.6-78.58c0-29.8-11.58-57.79-32.6-78.81c-21.02-21.02-49.01-32.6-78.81-32.6
				c-61.1,0-110.81,49.98-110.81,111.41c0,29.54,11.55,57.45,32.52,78.58C770.71,407.21,798.52,418.87,827.99,418.87 M827.99,80.33
				c-125.37,0-226.52,102.36-226.52,227.73s101.15,226.52,226.52,226.52c125.37,0,227.13-101.15,227.13-226.52
				S953.37,80.33,827.99,80.33L827.99,80.33z M827.99,415.87c-59.36,0-107.81-49.06-107.81-108.42
				c0-59.96,48.45-108.41,107.81-108.41c59.96,0,108.41,48.45,108.41,108.41C936.41,366.82,887.96,415.87,827.99,415.87
				L827.99,415.87z"/>
		</g>
	</g>
	<g>
		<g>
			<path class="st0" d="M1033.04,998.17V556.91h273.03v93.55h-157.84c-0.83,0-1.5,0.67-1.5,1.5v72.27c0,0.83,0.67,1.5,1.5,1.5
				h139.48v95.33h-139.48c-0.83,0-1.5,0.67-1.5,1.5v81.74c0,0.83,0.67,1.5,1.5,1.5h157.84v92.37H1033.04z"/>
			<path class="st0" d="M1304.57,558.41v90.55h-156.34c-1.66,0-3,1.34-3,3v72.27c0,1.66,1.34,3,3,3h137.98v92.33h-137.98
				c-1.66,0-3,1.34-3,3v81.74c0,1.66,1.34,3,3,3h156.34v89.37h-270.03V558.41H1304.57 M1307.57,555.41h-276.03v444.25h276.03V904.3
				h-159.34v-81.74h140.98v-98.33h-140.98v-72.27h159.34V555.41L1307.57,555.41z"/>
		</g>
	</g>
	<g>
		<g>
			<path class="st0" d="M1568.43,529.57c-47.3-3.23-83.29-19.3-106.94-47.78c-31.93-38.96-42.47-101.11-32.24-189.98
				c10.76-96.82,68.15-209.87,194.5-209.87h8.69c72.09,3.21,127.19,49.74,128.26,89.21c0.52,24.96-23.32,41.43-65.42,45.16
				c-34.54,3.24-65.37,4.88-91.62,4.88c-11.02,0-20.54,0-29.17-0.54l-32.52-4.34c-0.07-0.01-0.13-0.01-0.2-0.01
				c-5.14,0-9.01,3.36-9.63,8.37c-0.66,4.62,2.13,9.07,6.5,10.31c0.07,0.02,0.14,0.04,0.22,0.04l33.12,4.34
				c31.12,5.71,50.35,15.76,51.37,26.88c0.51,12.28-23.64,28.98-63.04,43.5l-67.27,19.53c-0.06,0.02-0.12,0.04-0.17,0.06
				c-4.52,1.94-7.04,7.02-5.74,11.56c0.02,0.06,0.04,0.12,0.06,0.18c1.71,4,5.33,6.58,9.23,6.58c0.76,0,1.53-0.1,2.29-0.29
				l67.38-19.56c34.98-8.48,67.9-12.97,95.14-12.97c43.52,0,72.5,10.91,86.14,32.42c17.83,28.09,17.42,63.35-1.13,96.74
				c-28.57,52.3-91.98,86.09-161.54,86.1L1568.43,529.57z"/>
			<path class="st0" d="M1632.38,83.44c71.32,3.2,125.78,48.95,126.83,87.73c0.25,11.87-5.08,21.69-15.82,29.17
				c-10.98,7.64-27.65,12.65-48.24,14.47c-34.49,3.23-65.26,4.87-91.47,4.87c-10.98,0-20.46,0-29.03-0.53l-32.47-4.33
				c-0.13-0.02-0.26-0.03-0.4-0.03c-5.92,0-10.38,3.88-11.12,9.66c-0.76,5.38,2.5,10.52,7.58,11.97c0.14,0.04,0.29,0.07,0.43,0.09
				l33.04,4.33c15.6,2.87,28.46,6.86,37.18,11.55c8,4.3,12.47,9.11,12.95,13.91c0.17,5.29-5.19,12.06-15.09,19.07
				c-10.88,7.7-27.1,15.64-46.91,22.94l-67.22,19.52c-0.12,0.03-0.23,0.08-0.35,0.12c-5.2,2.23-8.09,8.09-6.59,13.35
				c0.03,0.12,0.08,0.24,0.13,0.36c1.95,4.55,6.11,7.49,10.61,7.49c0.88,0,1.77-0.11,2.65-0.33c0.04-0.01,0.07-0.02,0.11-0.03
				l67.26-19.53c34.91-8.46,67.68-12.93,94.78-12.93c21.61,0,39.72,2.7,53.85,8.02c13.95,5.26,24.39,13.23,31.03,23.71
				c17.53,27.61,17.1,62.32-1.19,95.22c-28.31,51.81-91.18,85.29-160.19,85.31l-16.18-0.54c-46.9-3.21-82.53-19.1-105.88-47.22
				c-31.66-38.64-42.1-100.42-31.91-188.88c10.69-96.2,67.65-208.53,193.01-208.53H1632.38 M1632.44,80.44c-3.26,0-5.97,0-8.69,0
				c-127.04,0-185.14,113.47-196,211.2c-10.32,89.58,0.54,152.02,32.58,191.11c23.89,28.78,60.26,45.06,108.04,48.32l16.29,0.54
				c70.04,0,134.1-34.2,162.88-86.87c19-34.2,19-70.04,1.09-98.27c-14.12-22.26-43.43-33.12-87.41-33.12
				c-27.15,0-59.72,4.34-95.55,13.03l-67.32,19.55c-0.66,0.16-1.3,0.24-1.92,0.24c-3.52,0-6.47-2.44-7.85-5.67
				c-1.09-3.8,1.08-8.14,4.89-9.77l67.32-19.55c41.26-15.2,64.61-32.03,64.06-45.06c-1.09-11.94-20.09-22.26-52.66-28.23
				l-33.12-4.34c-3.8-1.09-5.97-4.89-5.43-8.69c0.54-4.34,3.8-7.06,8.14-7.06l32.58,4.34c8.69,0.54,18.46,0.54,29.32,0.54
				c26.06,0,57.01-1.63,91.75-4.89c42.89-3.8,67.32-20.63,66.78-46.69C1761.12,130.93,1705.74,83.7,1632.44,80.44L1632.44,80.44z"/>
		</g>
	</g>
	<g>
		<g>
			<path class="st0" d="M422.44,996.87c-15.83,0-29.51-3.23-40.67-9.61c-23.87-13.39-44.69-39.13-61.87-76.52
				c-6.13-13.33-14.87-35.01-21.75-62.62l-0.13-0.52c-0.01-0.04-0.02-0.07-0.03-0.11c-0.45-1.35-0.47-2.25-0.47-2.26
				c0-0.08-0.01-0.16-0.02-0.24c-0.68-4.07-4.68-7.25-9.11-7.25c-0.55,0-1.42,0-2.28,0.63c-2.25,0.4-4.19,1.66-5.51,3.58
				c-1.44,2.1-1.92,4.74-1.34,7.28v2c0,0.13,0.02,0.26,0.05,0.39c0.2,0.75,17.75,77.81-9.57,114.79
				c-8.69,11.4-20.1,17.45-34.86,18.47c-0.13,0.01-0.25,0.03-0.37,0.07c-1.4,0.47-3.47,0.47-4.98,0.47
				c-16.49,0-30.75-8.04-42.38-23.91c-17.26-23.28-27.73-62.68-29.48-110.95c-1.76-48.58,5.5-102.18,20.44-150.93
				c28.67-94.11,137.48-143.34,230.16-143.34c37.3,0,67.72,8.39,85.67,23.62c25.61,21.34,35.45,55.82,25.69,89.99
				c-15.17,55.27-74,96.01-157.36,109.01c-9.16,1.08-14.55,2.15-14.78,2.19c-5.22,1.3-8.37,5.79-7.73,10.92
				c0.58,4.67,4.33,7.92,9.11,7.92c0.42,0,0.86-0.03,1.29-0.08l14.69-1.63c8.64-1.02,23.09-2.71,40.16-2.71
				c53.01,0,119.24,12.47,133.69,71.87c9.06,37.83-4.34,65.53-17.17,82.1C498.72,978.27,459.82,996.87,422.44,996.87z M318.5,648.6
				c-4.68,0-8.66,3.64-9.26,8.46l-10.9,89.92c-0.31,2.5,0.41,4.96,2.04,6.93c1.58,1.92,3.84,3.15,6.35,3.46
				c0.06,0.01,0.12,0.01,0.19,0.01H308c4.63,0,8.47-3.29,9.11-7.83l10.9-90.49c0.31-2.5-0.41-4.96-2.04-6.92
				c-1.58-1.92-3.84-3.15-6.35-3.46C319.25,648.63,318.87,648.6,318.5,648.6z"/>
			<path class="st0" d="M408.27,557.8c36.94,0,67.02,8.26,84.72,23.28c12.32,10.27,21.17,23.96,25.6,39.59
				c4.41,15.57,4.27,32.46-0.42,48.86c-7.31,26.61-25.41,50.58-52.36,69.31c-27.2,18.9-63.06,32.25-103.73,38.59
				c-9.24,1.09-14.67,2.16-14.89,2.21c-0.05,0.01-0.09,0.02-0.14,0.03c-5.82,1.45-9.51,6.73-8.79,12.55
				c0.67,5.35,5.13,9.24,10.6,9.24c0.49,0,0.98-0.03,1.43-0.09l7.5-0.83l7.24-0.8c8.6-1.01,22.98-2.7,39.97-2.7
				c32.38,0,59.6,4.57,80.91,13.59c27.68,11.71,44.94,30.94,51.31,57.13c4.04,16.88,3.94,33.15-0.31,48.36
				c-3.21,11.49-8.79,22.42-16.56,32.46c-22.54,28.44-60.97,46.82-97.92,46.82c-15.56,0-29-3.17-39.95-9.43
				c-23.58-13.22-44.18-38.74-61.23-75.83c-6.1-13.27-14.81-34.86-21.66-62.35l-0.13-0.52c-0.02-0.07-0.04-0.15-0.06-0.22
				c-0.35-1.06-0.39-1.78-0.39-1.78c0.01-0.2-0.01-0.3-0.04-0.49c-0.81-4.85-5.36-8.5-10.59-8.5c-0.6,0-1.72,0-2.86,0.71
				c-2.51,0.53-4.67,1.98-6.16,4.15c-1.64,2.4-2.22,5.4-1.61,8.29v1.84c0,0.26,0.03,0.52,0.1,0.77c0.98,3.69,5.08,23.68,5.62,47.11
				c0.47,20.42-1.74,48.52-14.92,66.36c-8.54,11.21-19.28,16.9-33.79,17.9c-0.25,0.02-0.5,0.07-0.74,0.15
				c-1.17,0.39-3.1,0.39-4.5,0.39c-15.99,0-29.84-7.84-41.18-23.31c-17.08-23.03-27.44-62.13-29.18-110.1
				c-1.75-48.42,5.48-101.85,20.37-150.44C208,606.67,316.14,557.8,408.27,557.8 M306.91,758.88H308c5.39,0,9.84-3.83,10.6-9.12
				c0-0.02,0.01-0.04,0.01-0.07l10.9-90.44c0.37-2.92-0.48-5.78-2.37-8.07c-1.83-2.21-4.43-3.63-7.32-4
				c-0.44-0.05-0.88-0.08-1.32-0.08c-5.43,0-10.05,4.2-10.75,9.78l-10.9,89.9c-0.36,2.92,0.48,5.78,2.37,8.07
				c1.83,2.22,4.43,3.63,7.32,4C306.66,758.87,306.79,758.88,306.91,758.88 M408.27,554.8c-93.18,0-202.71,49.59-231.59,144.41
				c-31.06,101.36-26.7,214.7,9.26,263.2c11.99,16.35,26.7,24.52,43.59,24.52c1.64,0,3.81,0,5.45-0.54
				c15.8-1.09,27.25-7.63,35.97-19.07c26.16-35.42,11.99-107.9,9.81-116.07c0-1.64,0-2.18,0-2.18c-1.09-4.36,1.63-8.72,5.99-9.26
				c0.54-0.54,1.09-0.54,1.64-0.54c3.81,0,7.08,2.73,7.63,5.99c0,0,0,1.09,0.54,2.72c2.72,10.9,26.16,107.9,84.46,140.59
				c11.44,6.54,25.61,9.81,41.41,9.81c38.15,0,77.38-19.07,100.27-47.95c13.08-16.89,26.7-44.68,17.44-83.37
				c-14.71-60.49-81.74-73.02-135.14-73.02c-16.89,0-31.06,1.63-40.32,2.72c-4.9,0.54-9.81,1.09-14.71,1.64
				c-0.37,0.05-0.74,0.07-1.1,0.07c-3.89,0-7.12-2.62-7.62-6.61c-0.54-4.36,2.18-8.17,6.54-9.26c0,0,5.45-1.09,14.71-2.18
				c83.92-13.08,143.32-54.49,158.57-110.08c9.81-34.33,0-69.75-26.16-91.55C476.93,563.52,446.41,554.8,408.27,554.8L408.27,554.8z
				 M306.91,755.88c-4.36-0.54-7.63-4.36-7.08-8.72l10.9-89.91c0.5-4.04,3.82-7.14,7.77-7.14c0.31,0,0.63,0.02,0.95,0.06
				c4.36,0.54,7.63,4.36,7.08,8.72l-10.9,90.46c-0.54,3.81-3.81,6.54-7.63,6.54C307.46,755.88,307.46,755.88,306.91,755.88
				L306.91,755.88z"/>
		</g>
	</g>
	<g>
		<g>
			<path class="st0" d="M1116.14,529.06l-41.32-381.18c-2.83-25.51-11-46.96-24.3-63.77l0.53-1.86h229.14l-0.71,2.47
				c-25.51,16.83-40.83,33.12-45.53,48.44c-2.69,9.37-3.21,25.36-1.56,47.56l14.97,207.08c0.05,0.64,0.5,1.18,1.12,1.34
				c0.12,0.03,0.25,0.05,0.37,0.05c0.5,0,0.98-0.25,1.26-0.68l130.34-200.63c10.78-16.54,17.19-28.63,19.58-36.97
				c5.8-20.24-4.83-42.25-31.62-65.44l0.84-2.91l133.15-0.6l-0.55,1.92c-26.87,21.82-46.85,39.44-59.38,52.36
				c-12.05,12.43-25.66,29.98-41.61,53.67l-224.5,339.15H1116.14z"/>
			<path class="st0" d="M1499.98,83.46c-26.46,21.52-46.16,38.92-58.59,51.73c-12.11,12.49-25.78,30.11-41.79,53.89l-224.05,338.47
				h-58.06l-41.18-379.85c-2.82-25.49-10.94-46.98-24.14-63.92l0.01-0.03h226.02l-0.01,0.02c-25.53,16.91-40.9,33.38-45.68,48.94
				c-0.01,0.02-0.01,0.04-0.02,0.05c-2.77,9.65-3.29,25.37-1.61,48.05l14.97,207.08c0.09,1.29,1,2.37,2.24,2.69
				c0.25,0.06,0.5,0.09,0.75,0.09c1,0,1.95-0.5,2.52-1.37l130.34-200.63c10.87-16.67,17.33-28.89,19.76-37.37
				c3.06-10.66,1.74-21.86-3.91-33.27c-5.28-10.65-14.51-21.78-27.45-33.1l0.26-0.91L1499.98,83.46 M1504.39,80.44l-136.28,0.61
				l-1.41,4.92c26.88,23.04,37.61,44.55,31.88,64.52c-2.38,8.3-8.98,20.59-19.39,36.56l-130.34,200.63l-14.97-207.08
				c-1.64-22.12-1.14-37.79,1.5-47.01c4.62-15.05,19.65-31.03,45.39-47.93l1.41-4.92h-232.26l-1.06,3.69
				c13.59,16.9,21.64,38.1,24.47,63.6l41.47,382.52h62.37l224.94-339.81c15.52-23.04,29.23-40.86,41.44-53.46
				c12.21-12.6,31.98-30.11,59.62-52.54L1504.39,80.44L1504.39,80.44z"/>
		</g>
	</g>
</g>
</svg>
