<?xml version="1.0" encoding="UTF-8"?><svg id="Layer_1" xmlns="http://www.w3.org/2000/svg" viewBox="0 0 1920 1080"><defs><style>.cls-1{fill:#efe635;}</style></defs><path class="cls-1" d="M508.87,84.06c-20.03,10.45-32.95,19.3-39.48,27.02-6.84,8.08-13.39,23.22-20,46.28l-90.92,317.08c-2.91,10.14-.88,18.69,6.04,25.41,6.49,6.31,15.75,10,27.51,10.98,.08,0,.17,.01,.25,.01,.05,0,.11,0,.16,0,29.41-1.56,60.54-15.32,92.52-40.9,29.73-23.78,56.86-51.18,80.74-81.52l-53.96,139.47H160.69c19.57-10.22,32.88-19.41,39.57-27.32,6.85-8.09,13.3-22.92,19.73-45.36l84.93-296.19c6.65-23.18,8.78-38.48,6.51-46.78-2.18-7.96-10.02-16.94-23.94-27.41l.21-.75h221.17m4.23-3h-227.65l-1.41,4.92c14.21,10.45,22.41,19.36,24.51,27.04,2.1,7.68-.07,22.74-6.5,45.17l-84.93,296.19c-6.26,21.81-12.64,36.56-19.14,44.24-6.5,7.68-19.9,16.9-40.1,27.34l-1.41,4.92h357.3l58.13-150.24h-3.99c-25.1,32.87-53.35,61.76-84.84,86.95-31.49,25.19-61.79,38.71-90.8,40.25-11.1-.92-19.66-4.3-25.67-10.14-6.01-5.84-7.89-13.21-5.24-22.43l90.92-317.08c6.43-22.43,12.9-37.48,19.4-45.17,6.5-7.68,19.81-16.59,40.01-27.04l1.41-4.92h0Z"/><path class="cls-1" d="M1701.79,557.63c-19.65,10.27-32.34,18.96-38.77,26.55-6.75,7.97-13.2,22.9-19.71,45.62l-89.6,312.47c-2.87,10.01-.86,18.45,5.96,25.08,6.4,6.22,15.53,9.87,27.13,10.83,.08,0,.17,.01,.25,.01,.05,0,.11,0,.16,0,28.99-1.54,59.68-15.1,91.21-40.32,29.23-23.38,55.91-50.3,79.39-80.11l-53.07,137.14h-345.72c19.2-10.05,32.26-19.08,38.85-26.85,6.75-7.97,13.11-22.6,19.46-44.71l83.69-291.88c6.55-22.85,8.65-37.94,6.41-46.13-2.15-7.85-9.87-16.7-23.59-27.02l.19-.68h217.75m4.34-3h-224.35l-1.39,4.85c14,10.29,22.08,19.07,24.15,26.64,2.07,7.57-.07,22.41-6.4,44.51l-83.69,291.88c-6.17,21.5-12.45,36.03-18.86,43.6-6.41,7.57-19.61,16.65-39.52,26.95l-1.39,4.84h352.13l57.29-148.06h-3.94c-24.73,32.4-52.57,60.86-83.61,85.69-31.04,24.83-60.9,38.15-89.49,39.66-10.94-.91-19.37-4.24-25.29-9.99-5.92-5.75-7.77-13.02-5.17-22.1l89.6-312.47c6.34-22.1,12.71-36.94,19.12-44.51,6.41-7.57,19.52-16.35,39.43-26.64l1.39-4.85h0Z"/><path class="cls-1" d="M988.15,558.84l-30.74,144.2c-1.29-32.61-10.6-61.89-27.71-87.11-18.17-26.79-47.33-40.38-86.66-40.38h-17.26c-1.34,0-2.51,.89-2.88,2.17l-49.83,173.8c-.26,.91-.08,1.88,.49,2.63,.57,.75,1.45,1.19,2.4,1.19h19.07c21.17,0,42.25-5.84,62.65-17.34,18-10.15,33.86-22.43,47.22-36.56l-36.89,128.64c-5.22-16.27-13.86-30.1-25.74-41.18-12.86-11.99-30.29-18.07-51.8-18.08-.55,0-1.1,0-1.66,.01h-.05l-19.25,.61c-1.3,.04-2.43,.92-2.79,2.17l-48.36,168.65c-3.21,11.18-.89,20.18,6.89,26.74,7.23,6.09,17.35,9.18,30.08,9.18h7.57c15,0,30.42-3.21,45.86-9.54,15.3-6.27,31.09-15.81,46.92-28.35,30.29-24,58.2-52.35,83.03-84.33l-54.23,140.14h-361.17c19.2-10.05,32.27-19.08,38.85-26.85,6.75-7.97,13.11-22.6,19.46-44.71l83.69-291.88c6.55-22.85,8.65-37.94,6.41-46.13-2.14-7.85-9.87-16.7-23.59-27.02l.19-.68h339.8m3.71-3h-345.77l-1.39,4.84c14,10.3,22.08,19.08,24.15,26.65,2.07,7.57-.07,22.41-6.4,44.51l-83.69,291.88c-6.16,21.5-12.45,36.03-18.86,43.6-6.41,7.57-19.61,16.65-39.52,26.95l-1.39,4.84h367.57l57.29-148.06-4.19-1.21c-25.77,33.91-54.48,63.28-85.82,88.11-31.34,24.83-61.55,37.24-90.91,37.24h-7.57c-11.81,0-21.32-2.73-28.15-8.48-6.83-5.75-8.81-13.63-5.94-23.62l48.36-168.65,19.25-.61c.54,0,1.08-.01,1.61-.01,20.82,0,37.41,5.76,49.75,17.27,12.66,11.81,21.43,26.65,26.29,44.51h3.03l40.37-140.79h-3.03c-13.9,15.75-30.83,29.37-50.69,40.57-19.87,11.2-40.29,16.96-61.18,16.96h-19.07l49.83-173.8h17.26c38.45,0,66.51,13.02,84.17,39.06,17.66,26.04,26.85,56.32,27.33,90.53h4.84l32.47-152.3h0Z"/><path class="cls-1" d="M827.99,83.33c123.58,0,224.13,100.81,224.13,224.73,0,30.24-5.93,59.55-17.62,87.11-11.29,26.62-27.45,50.52-48.05,71.04-20.58,20.5-44.55,36.6-71.24,47.84-27.62,11.63-56.96,17.53-87.22,17.53s-59.56-5.9-87.12-17.53c-26.63-11.24-50.53-27.33-71.03-47.84-20.51-20.51-36.6-44.41-47.84-71.03-11.63-27.56-17.53-56.87-17.53-87.12s5.9-59.63,17.53-87.31c11.25-26.76,27.34-50.8,47.85-71.45,20.52-20.68,44.42-36.91,71.04-48.25,27.58-11.75,56.89-17.71,87.11-17.71m0,335.54c29.74,0,57.73-11.66,78.82-32.83,21.02-21.1,32.6-49.01,32.6-78.58s-11.58-57.79-32.6-78.81c-21.02-21.02-49.01-32.6-78.81-32.6-61.1,0-110.81,49.98-110.81,111.41,0,29.54,11.55,57.45,32.52,78.58,21.01,21.17,48.82,32.84,78.29,32.84m0-338.54c-125.37,0-226.52,102.36-226.52,227.73s101.15,226.52,226.52,226.52,227.13-101.15,227.13-226.52-101.75-227.73-227.13-227.73h0Zm0,335.54c-59.36,0-107.81-49.06-107.81-108.42s48.45-108.41,107.81-108.41,108.41,48.45,108.41,108.41-48.45,108.42-108.41,108.42h0Z"/><path class="cls-1" d="M1304.57,558.41v90.55h-156.34c-1.66,0-3,1.34-3,3v72.27c0,1.66,1.34,3,3,3h137.98v92.33h-137.98c-1.66,0-3,1.34-3,3v81.74c0,1.66,1.34,3,3,3h156.34v89.37h-270.03v-438.25h270.03m3-3h-276.03v444.25h276.03v-95.37h-159.34v-81.74h140.98v-98.33h-140.98v-72.27h159.34v-96.55h0Z"/><path class="cls-1" d="M1632.38,83.44c71.32,3.2,125.78,48.95,126.83,87.73,.25,11.87-5.08,21.69-15.82,29.17-10.98,7.64-27.65,12.65-48.24,14.47-34.49,3.23-65.26,4.87-91.47,4.87-10.98,0-20.46,0-29.03-.53l-32.47-4.33c-.13-.02-.26-.03-.4-.03-5.92,0-10.38,3.88-11.12,9.66-.76,5.38,2.5,10.52,7.58,11.97,.14,.04,.29,.07,.43,.09l33.04,4.33c15.6,2.87,28.46,6.86,37.18,11.55,8,4.3,12.47,9.11,12.95,13.91,.17,5.29-5.19,12.06-15.09,19.07-10.88,7.7-27.1,15.64-46.91,22.94l-67.22,19.52c-.12,.03-.23,.08-.35,.12-5.2,2.23-8.09,8.09-6.59,13.35,.03,.12,.08,.24,.13,.36,1.95,4.55,6.11,7.49,10.61,7.49,.88,0,1.77-.11,2.65-.33,.04,0,.07-.02,.11-.03l67.26-19.53c34.91-8.46,67.68-12.93,94.78-12.93,21.61,0,39.72,2.7,53.85,8.02,13.95,5.26,24.39,13.23,31.03,23.71,17.53,27.61,17.1,62.32-1.19,95.22-28.31,51.81-91.18,85.29-160.19,85.31l-16.18-.54c-46.9-3.21-82.53-19.1-105.88-47.22-31.66-38.64-42.1-100.42-31.91-188.88,10.69-96.2,67.65-208.53,193.01-208.53h8.62m.07-3h-8.69c-127.04,0-185.14,113.47-196,211.2-10.32,89.58,.54,152.02,32.58,191.11,23.89,28.78,60.26,45.06,108.04,48.32l16.29,.54c70.04,0,134.1-34.2,162.88-86.87,19-34.2,19-70.04,1.09-98.27-14.12-22.26-43.43-33.12-87.41-33.12-27.15,0-59.72,4.34-95.55,13.03l-67.32,19.55c-.66,.16-1.3,.24-1.92,.24-3.52,0-6.47-2.44-7.85-5.67-1.09-3.8,1.08-8.14,4.89-9.77l67.32-19.55c41.26-15.2,64.61-32.03,64.06-45.06-1.09-11.94-20.09-22.26-52.66-28.23l-33.12-4.34c-3.8-1.09-5.97-4.89-5.43-8.69,.54-4.34,3.8-7.06,8.14-7.06l32.58,4.34c8.69,.54,18.46,.54,29.32,.54,26.06,0,57.01-1.63,91.75-4.89,42.89-3.8,67.32-20.63,66.78-46.69-1.09-40.18-56.47-87.41-129.76-90.67h0Z"/><path class="cls-1" d="M408.27,557.8c36.94,0,67.02,8.26,84.72,23.28,12.32,10.27,21.17,23.96,25.6,39.59,4.41,15.57,4.27,32.46-.42,48.86-7.31,26.61-25.41,50.58-52.36,69.31-27.2,18.9-63.06,32.25-103.73,38.59-9.24,1.09-14.67,2.16-14.89,2.21-.05,0-.09,.02-.14,.03-5.82,1.45-9.51,6.73-8.79,12.55,.67,5.35,5.13,9.24,10.6,9.24,.49,0,.98-.03,1.43-.09l7.5-.83,7.24-.8c8.6-1.01,22.98-2.7,39.97-2.7,32.38,0,59.6,4.57,80.91,13.59,27.68,11.71,44.94,30.94,51.31,57.13,4.04,16.88,3.94,33.15-.31,48.36-3.21,11.49-8.79,22.42-16.56,32.46-22.54,28.44-60.97,46.82-97.92,46.82-15.56,0-29-3.17-39.95-9.43-23.58-13.22-44.18-38.74-61.23-75.83-6.1-13.27-14.81-34.86-21.66-62.35l-.13-.52c-.02-.07-.04-.15-.06-.22-.35-1.06-.39-1.78-.39-1.78,0-.2,0-.3-.04-.49-.81-4.85-5.36-8.5-10.59-8.5-.6,0-1.72,0-2.86,.71-2.51,.53-4.67,1.98-6.16,4.15-1.64,2.4-2.22,5.4-1.61,8.29v1.84c0,.26,.03,.52,.1,.77,.98,3.69,5.08,23.68,5.62,47.11,.47,20.42-1.74,48.52-14.92,66.36-8.54,11.21-19.28,16.9-33.79,17.9-.25,.02-.5,.07-.74,.15-1.17,.39-3.1,.39-4.5,.39-15.99,0-29.84-7.84-41.18-23.31-17.08-23.03-27.44-62.13-29.18-110.1-1.75-48.42,5.48-101.85,20.37-150.44,28.45-93.41,136.6-142.28,228.72-142.28m-101.36,201.08h1.09c5.39,0,9.84-3.83,10.6-9.12v-.07l10.9-90.44c.37-2.92-.48-5.78-2.37-8.07-1.83-2.21-4.43-3.63-7.32-4-.44-.05-.88-.08-1.32-.08-5.43,0-10.05,4.2-10.75,9.78l-10.9,89.9c-.36,2.92,.48,5.78,2.37,8.07,1.83,2.22,4.43,3.63,7.32,4,.12,.02,.25,.02,.37,.02m101.36-204.08c-93.18,0-202.71,49.59-231.59,144.41-31.06,101.36-26.7,214.7,9.26,263.2,11.99,16.35,26.7,24.52,43.59,24.52,1.64,0,3.81,0,5.45-.54,15.8-1.09,27.25-7.63,35.97-19.07,26.16-35.42,11.99-107.9,9.81-116.07v-2.18c-1.09-4.36,1.63-8.72,5.99-9.26,.54-.54,1.09-.54,1.64-.54,3.81,0,7.08,2.73,7.63,5.99,0,0,0,1.09,.54,2.72,2.72,10.9,26.16,107.9,84.46,140.59,11.44,6.54,25.61,9.81,41.41,9.81,38.15,0,77.38-19.07,100.27-47.95,13.08-16.89,26.7-44.68,17.44-83.37-14.71-60.49-81.74-73.02-135.14-73.02-16.89,0-31.06,1.63-40.32,2.72-4.9,.54-9.81,1.09-14.71,1.64-.37,.05-.74,.07-1.1,.07-3.89,0-7.12-2.62-7.62-6.61-.54-4.36,2.18-8.17,6.54-9.26,0,0,5.45-1.09,14.71-2.18,83.92-13.08,143.32-54.49,158.57-110.08,9.81-34.33,0-69.75-26.16-91.55-17.98-15.26-48.5-23.98-86.64-23.98h0Zm-101.36,201.08c-4.36-.54-7.63-4.36-7.08-8.72l10.9-89.91c.5-4.04,3.82-7.14,7.77-7.14,.31,0,.63,.02,.95,.06,4.36,.54,7.63,4.36,7.08,8.72l-10.9,90.46c-.54,3.81-3.81,6.54-7.63,6.54h-1.09Z"/><path class="cls-1" d="M1499.98,83.46c-26.46,21.52-46.16,38.92-58.59,51.73-12.11,12.49-25.78,30.11-41.79,53.89l-224.05,338.47h-58.06l-41.18-379.85c-2.82-25.49-10.94-46.98-24.14-63.92v-.03h226.03v.02c-25.54,16.91-40.9,33.38-45.68,48.94l-.02,.05c-2.77,9.65-3.29,25.37-1.61,48.05l14.97,207.08c.09,1.29,1,2.37,2.24,2.69,.25,.06,.5,.09,.75,.09,1,0,1.95-.5,2.52-1.37l130.34-200.63c10.87-16.67,17.33-28.89,19.76-37.37,3.06-10.66,1.74-21.86-3.91-33.27-5.28-10.65-14.51-21.78-27.45-33.1l.26-.91,129.6-.58m4.41-3.02l-136.28,.61-1.41,4.92c26.88,23.04,37.61,44.55,31.88,64.52-2.38,8.3-8.98,20.59-19.39,36.56l-130.34,200.63-14.97-207.08c-1.64-22.12-1.14-37.79,1.5-47.01,4.62-15.05,19.65-31.03,45.39-47.93l1.41-4.92h-232.26l-1.06,3.69c13.59,16.9,21.64,38.1,24.47,63.6l41.47,382.52h62.37l224.94-339.81c15.52-23.04,29.23-40.86,41.44-53.46,12.21-12.6,31.98-30.11,59.62-52.54l1.23-4.3h0Z"/></svg>